<?xml version="1.0" encoding="UTF-8"?>
<svg width="110px" height="130px" viewBox="0 0 110 130" version="1.1" xmlns="http://www.w3.org/2000/svg" xmlns:xlink="http://www.w3.org/1999/xlink">
    <!-- Generator: sketchtool 48.1 (47250) - http://www.bohemiancoding.com/sketch -->
    <title>DEA22F92-3000-48CC-885E-01836C57AA33</title>
    <desc>Created with sketchtool.</desc>
    <defs></defs>
    <g id="404" stroke="none" stroke-width="1" fill="none" fill-rule="evenodd" transform="translate(-637.000000, -270.000000)">
        <g id="ic_error_404" transform="translate(637.000000, 270.000000)">
            <rect id="Rectangle-path" fill="#D8B26B" fill-rule="nonzero" x="99.8239623" y="41.9032969" width="4.79433962" height="34.0534219"></rect>
            <ellipse id="Oval" fill="#E02424" fill-rule="nonzero" cx="102.220354" cy="38.6839922" rx="7.72153302" ry="7.6580625"></ellipse>
            <path d="M108.512925,79.5560391 C108.512925,80.3201953 107.883019,80.9456484 107.113019,80.9456484 L92.1820755,80.9456484 C91.4123349,80.9456484 90.7821698,80.3204531 90.7821698,79.5560391 L90.7821698,70.9894453 C90.7821698,70.2252891 91.411816,69.5998359 92.1820755,69.5998359 L107.113019,69.5998359 C107.882759,69.5998359 108.512925,70.2250312 108.512925,70.9894453 L108.512925,79.5560391 Z" id="Shape" fill="#E02424" fill-rule="nonzero"></path>
            <path d="M93.8904481,87.4982109 C93.8904481,88.2623672 93.2605425,88.8875625 92.4905425,88.8875625 L86.7855896,88.8875625 C86.0158491,88.8875625 85.385684,88.262625 85.385684,87.4982109 L85.385684,63.0477891 C85.385684,62.2838906 86.0155896,61.6584375 86.7855896,61.6584375 L92.4905425,61.6584375 C93.260283,61.6584375 93.8904481,62.2836328 93.8904481,63.0477891 L93.8904481,87.4982109 Z" id="Shape" fill="#0853A4" fill-rule="nonzero"></path>
            <path d="M76.8539387,24.7102969 C74.0271462,10.6205859 61.4925943,0 46.4558019,0 C31.4184906,0 18.8839387,10.6205859 16.0574057,24.7102969 L76.8539387,24.7102969 Z" id="Shape" fill="#E02424" fill-rule="nonzero"></path>
            <path d="M69.5555425,24.7102969 C66.858467,14.5589297 57.5261085,7.05091406 46.4558019,7.05091406 C35.3854953,7.05091406 26.0526179,14.5589297 23.3558019,24.7102969 L69.5555425,24.7102969 Z" id="Shape" fill="#D8B26B" fill-rule="nonzero"></path>
            <path d="M62.2605189,24.7102969 C59.8112028,18.4188984 53.6525,13.9422422 46.4555425,13.9422422 C39.2585849,13.9422422 33.0998821,18.4186406 30.6503066,24.7102969 L62.2605189,24.7102969 Z" id="Shape" fill="#0853A4" fill-rule="nonzero"></path>
            <rect id="Rectangle-path" fill="#D8B26B" fill-rule="nonzero" x="4.41660377" y="92.4" width="84.0789151" height="32.8654219"></rect>
            <path d="M1.45801887,123.556383 C0.688018868,123.556383 0.0581132075,124.18132 0.0581132075,124.945734 L0.0581132075,127.773938 C0.0581132075,128.538094 0.688018868,129.163547 1.45801887,129.163547 L91.4528066,129.163547 C92.2225472,129.163547 92.8527123,128.538352 92.8527123,127.773938 L92.8527123,124.945734 C92.8527123,124.181578 92.2228066,123.556383 91.4528066,123.556383 L1.45801887,123.556383 Z" id="Shape" fill="#A86D33" fill-rule="nonzero"></path>
            <g id="Group" transform="translate(4.410377, 21.656250)" fill="#D1943D" fill-rule="nonzero">
                <path d="M0.00622641523,70.74375 L0.00622641523,80.3356641 C0.00622641523,81.8642344 1.26629717,83.1143672 2.80603774,83.1143672 L81.2842925,83.1143672 C82.824033,83.1143672 84.0841038,81.8639766 84.0841038,80.3356641 L84.0841038,70.74375 L0.00622641523,70.74375 Z" id="Shape"></path>
                <path d="M84.0838443,31.6825781 L84.0838443,2.95478906 C84.0838443,1.42621875 82.824033,0.175828125 81.284033,0.175828125 L2.80603774,0.175828125 C1.26629717,0.175828125 0.00622641523,1.42647656 0.00622641523,2.95478906 L0.00622641523,31.6825781 L84.0838443,31.6825781 Z" id="Shape"></path>
            </g>
            <path d="M17.1625943,44.1398203 C16.9384434,44.1398203 16.7420519,43.9892578 16.6854953,43.7737266 C16.2483491,42.1154766 14.940283,40.8065625 13.2723821,40.3582266 C13.0573113,40.3002188 12.9078774,40.1060859 12.9078774,39.8848828 L12.9078774,31.8932109 C12.9078774,31.67175 13.0575708,31.4776172 13.2726415,31.4196094 C14.8915094,30.9851953 16.1871226,29.7234609 16.6541038,28.1276016 C16.7153302,27.9185156 16.9083491,27.7741406 17.1278302,27.7741406 L75.5910142,27.7741406 C75.8104953,27.7741406 76.0035142,27.9182578 76.0647406,28.1276016 C76.5527358,29.794875 77.9155425,31.0738828 79.6213208,31.4647266 C79.8452123,31.5160313 80.0039858,31.7142891 80.0039858,31.9424531 L80.0039858,39.8356406 C80.0039858,40.0640625 79.8452123,40.2620625 79.6213208,40.313625 C77.864434,40.7160703 76.489434,42.042 76.0330896,43.7737266 C75.976533,43.9895156 75.7801415,44.1398203 75.5559906,44.1398203 L17.1625943,44.1398203 Z" id="Shape" fill="#0853A4" fill-rule="nonzero"></path>
            <path d="M7.21641509,97.3639219 C5.67667453,97.3639219 4.41660377,96.1132734 4.41660377,94.5849609 L4.41660377,53.3432109 C4.41660377,51.8146406 5.67667453,50.5645078 7.21641509,50.5645078 L85.6946698,50.5645078 C87.2344104,50.5645078 88.4944811,51.8148984 88.4944811,53.3432109 L88.4944811,94.5849609 C88.4944811,96.1135312 87.2346698,97.3639219 85.6946698,97.3639219 L7.21641509,97.3639219 Z" id="Shape" fill="#D8B26B" fill-rule="nonzero"></path>
            <rect id="Rectangle-path" fill="#FFFFFF" fill-rule="nonzero" x="11.5297642" y="56.5068281" width="69.8497406" height="34.9152891"></rect>
            <path d="M24.1849609,79.5566406 L16.2142578,79.5566406 L16.2142578,75.9580078 L24.1849609,66.4833984 L27.9984375,66.4833984 L27.9984375,76.1621094 L29.975,76.1621094 L29.975,79.5566406 L27.9984375,79.5566406 L27.9984375,82.5 L24.1849609,82.5 L24.1849609,79.5566406 Z M24.1849609,76.1621094 L24.1849609,71.2099609 L19.9740234,76.1621094 L24.1849609,76.1621094 Z" id="4" fill="#E02424"></path>
            <path d="M70.6707031,79.0732422 L62.7,79.0732422 L62.7,75.4746094 L70.6707031,66 L74.4841797,66 L74.4841797,75.6787109 L76.4607422,75.6787109 L76.4607422,79.0732422 L74.4841797,79.0732422 L74.4841797,82.0166016 L70.6707031,82.0166016 L70.6707031,79.0732422 Z M70.6707031,75.6787109 L70.6707031,70.7265625 L66.4597656,75.6787109 L70.6707031,75.6787109 Z" id="4" fill="#E02424"></path>
            <path d="M40.8654297,74.5615234 C40.8654297,71.5680189 41.404324,69.4733133 42.4821289,68.2773438 C43.5599338,67.0813742 45.2016817,66.4833984 47.4074219,66.4833984 C48.467323,66.4833984 49.3374315,66.6140937 50.0177734,66.8754883 C50.6981154,67.1368828 51.2531229,67.4770487 51.6828125,67.8959961 C52.1125021,68.3149435 52.4508777,68.7553688 52.6979492,69.2172852 C52.9450208,69.6792015 53.1437492,70.2180959 53.2941406,70.8339844 C53.5877619,72.0084694 53.7345703,73.2330665 53.7345703,74.5078125 C53.7345703,77.3652487 53.2511767,79.4563736 52.284375,80.78125 C51.3175733,82.1061264 49.6525509,82.7685547 47.2892578,82.7685547 C45.9643814,82.7685547 44.8937541,82.5572938 44.0773437,82.1347656 C43.2609334,81.7122375 42.5913438,81.0927775 42.0685547,80.2763672 C41.6889955,79.6962862 41.3935883,78.9031626 41.1823242,77.8969727 C40.9710601,76.8907827 40.8654297,75.7789774 40.8654297,74.5615234 Z M45.2052734,74.5722656 C45.2052734,76.577484 45.3825178,77.9470992 45.7370117,78.6811523 C46.0915057,79.4152055 46.6053352,79.7822266 47.2785156,79.7822266 C47.7225283,79.7822266 48.1074528,79.6264664 48.4333008,79.3149414 C48.7591488,79.0034164 48.9990552,78.5110711 49.1530273,77.8378906 C49.3069995,77.1647102 49.3839844,76.115567 49.3839844,74.6904297 C49.3839844,72.5992734 49.2067401,71.1938513 48.8522461,70.4741211 C48.4977521,69.7543909 47.9660192,69.3945312 47.2570312,69.3945312 C46.5337203,69.3945312 46.0109391,69.7615523 45.6886719,70.4956055 C45.3664046,71.2296586 45.2052734,72.5885317 45.2052734,74.5722656 Z" id="0" fill="#0853A4"></path>
            <path d="M67.1716038,127.774195 C67.1716038,128.538352 66.5416981,129.163805 65.7716981,129.163805 L27.1393868,129.163805 C26.3693868,129.163805 25.7394811,128.538609 25.7394811,127.774195 L25.7394811,115.520625 C25.7394811,114.756727 26.3693868,114.131273 27.1393868,114.131273 L65.7716981,114.131273 C66.5414387,114.131273 67.1716038,114.756469 67.1716038,115.520625 L67.1716038,127.774195 Z" id="Shape" fill="#5B330A" fill-rule="nonzero"></path>
            <ellipse id="Oval" fill="#FFFFFF" fill-rule="nonzero" cx="23.2919811" cy="35.9901094" rx="3.28832547" ry="3.26235938"></ellipse>
            <ellipse id="Oval" fill="#FEE12D" fill-rule="nonzero" cx="38.7329717" cy="35.9901094" rx="3.28832547" ry="3.26235938"></ellipse>
            <ellipse id="Oval" fill="#FFFFFF" fill-rule="nonzero" cx="54.1765566" cy="35.9901094" rx="3.28832547" ry="3.26235938"></ellipse>
            <ellipse id="Oval" fill="#FEE12D" fill-rule="nonzero" cx="69.6198821" cy="35.9901094" rx="3.28832547" ry="3.26235938"></ellipse>
            <ellipse id="Oval" fill="#0853A4" fill-rule="nonzero" cx="78.1996226" cy="113.848711" rx="3.71768868" ry="3.68749219"></ellipse>
            <g id="Group" transform="translate(11.415094, 109.604687)" fill="#E02424" fill-rule="nonzero">
                <ellipse id="Oval" cx="3.86919811" cy="4.24402344" rx="3.71768868" ry="3.68749219"></ellipse>
            </g>
            <path d="M81.893184,54.5152266 L11.5603774,54.5152266 C10.4375472,54.5152266 9.5271934,55.4196328 9.5271934,56.5357031 L9.5271934,90.9046875 C9.5271934,92.0207578 10.4375472,92.9251641 11.5603774,92.9251641 L81.893184,92.9251641 C83.0160142,92.9251641 83.9263679,92.0207578 83.9263679,90.9046875 L83.9263679,56.5357031 C83.9263679,55.4198906 83.0160142,54.5152266 81.893184,54.5152266 Z M13.5935613,58.5559219 L32.925283,58.5559219 L32.925283,88.8842109 L13.5935613,88.8842109 L13.5935613,58.5559219 Z M36.9913915,58.5559219 L56.4619104,58.5559219 L56.4619104,88.8842109 L36.9913915,88.8842109 L36.9913915,58.5559219 Z M79.86,88.8842109 L60.5285377,88.8842109 L60.5285377,58.5559219 L79.8602594,58.5559219 L79.86,88.8842109 Z" id="Shape" fill="#A86D33" fill-rule="nonzero"></path>
        </g>
    </g>
</svg>