<?xml version="1.0" encoding="UTF-8"?>
<svg width="157px" height="75px" viewBox="0 0 157 75" version="1.1" xmlns="http://www.w3.org/2000/svg" xmlns:xlink="http://www.w3.org/1999/xlink">
    <!-- Generator: sketchtool 48.1 (47250) - http://www.bohemiancoding.com/sketch -->
    <title>390C6734-A341-43A8-A92E-28A0C0A83D4A</title>
    <desc>Created with sketchtool.</desc>
    <defs></defs>
    <g id="500" stroke="none" stroke-width="1" fill="none" fill-rule="evenodd" transform="translate(-605.000000, -322.000000)">
        <g id="ic_error_500" transform="translate(601.000000, 318.000000)" fill-rule="nonzero">
            <g id="logo_cm" transform="translate(46.572854, 42.370574) rotate(-17.000000) translate(-46.572854, -42.370574) translate(7.572854, 10.870574)">
                <path d="M68.0650042,21.4406056 C58.4425639,17.8544113 46.4317986,16.7983163 38.4388534,21.4650701 C28.4127877,27.3188799 19.2088746,30.7244901 19.3590062,42.344454 C19.3526716,45.7117338 19.8839583,49.0583801 20.9327576,52.2577269 L16.2525303,54.8038483 C16.2495545,46.4281208 12.2248204,44.347309 3.85978184,44.3473095 L2.91088718,16.724746 C5.67793785,16.7372479 8.39556462,15.9907185 10.7688652,14.5661672 C10.9736685,14.4420489 11.1784717,14.3071378 11.383275,14.1722266 C11.7856955,13.895209 12.1737437,13.6038009 12.5474199,13.2980022 C16.0541899,10.4145549 18.0789706,6.10416804 18.0609394,1.56073022 C18.0661203,1.40891133 18.0552811,1.25696896 18.0286021,1.10742868 L66.7150031,1.10742868 C66.6721652,1.20647619 66.6276077,1.30443975 66.5802528,1.40079712 C66.2901074,1.99265611 66.0096279,2.21564524 65.9852963,2.93254486 C65.967131,3.46188353 65.9839631,4.00372626 65.9894627,4.53514894 C65.9961289,5.17910819 65.8146422,5.53130597 65.7214823,6.13566902 C65.625156,6.76295619 65.9091352,6.91092094 66.0036283,7.40274742 C66.0872889,7.84038963 66.0054615,8.5281131 65.9331335,8.95116723 C65.8963029,9.16790433 65.7601461,9.35129725 65.7279818,9.6576468 C65.7349813,9.87229988 65.7369812,10.089037 65.7339814,10.3057741 C65.7339814,10.5891995 65.6676529,11.0101696 65.720649,11.283175 C65.7373145,11.4582319 65.8081426,11.5832725 65.9331335,11.6591305 C66.0166274,12.1665871 65.9471325,12.5277461 66.1772823,12.9570523 C66.4355968,13.4386671 66.9137285,13.7931573 67.2662027,14.1434794 C67.5630143,14.4383669 67.7508339,14.580288 68.0536451,14.8011932 C68.2496308,14.9443647 68.3351245,14.9524923 68.4961128,15.1869435 C68.6377691,15.3932605 68.948413,16.2197791 69.0089086,16.4692352 C69.1705635,17.1375774 68.9582456,17.538541 68.867419,18.0712141 C68.8004239,18.4644668 68.7830918,18.8685565 68.8045902,19.2822326 C68.8182559,19.5471103 69.0315736,20.0685297 69.022241,20.2596335 C68.9986355,20.7371874 68.403916,21.1900265 68.0650042,21.4406056 Z" id="Combined-Shape" fill="#EF5008"></path>
                <path d="M64.9398695,20.853217 C56.5059277,18.3256564 47.2762052,19.3379163 39.479666,23.8899967 C29.4536003,29.7438065 23.3483486,40.5460035 23.4984802,52.1659674 C23.4921456,55.5332472 24.0234322,58.8798935 25.0722316,62.0792403 L15.1500523,62.0792403 C15.1470764,53.7035128 8.36503852,46.915224 0,46.9152245 L0,15.9989803 C2.76705067,16.0114822 5.48467744,15.2649528 7.85797801,13.8404015 C8.06278128,13.7162833 8.26758455,13.5813721 8.47238782,13.4464609 C8.87480827,13.1694433 9.26285657,12.8780352 9.63653271,12.5722365 C13.1433027,9.68878926 15.1680835,5.37840236 15.1500523,0.834964531 C15.1552331,0.683145643 15.1443939,0.531203268 15.1177149,0.381662993 L63.8041159,0.381662993 C63.7612781,0.480710499 63.7167205,0.578674066 63.6693657,0.675031438 C63.3792202,1.26689043 63.0987407,1.48987955 63.0744092,2.20677917 C63.0562438,2.73611784 63.0730759,3.27796058 63.0785755,3.80938326 C63.0852417,4.45334251 62.903755,4.80554029 62.8105951,5.40990334 C62.7142688,6.0371905 62.9982481,6.18515525 63.0927412,6.67698173 C63.1764017,7.11462394 63.0945744,7.80234741 63.0222463,8.22540155 C62.9854157,8.44213864 62.849259,8.62553157 62.8170946,8.93188111 C62.8240941,9.1465342 62.826094,9.36327129 62.8230942,9.58000838 C62.8230942,9.86343381 62.7567657,10.2844039 62.8097618,10.5574093 C62.8264273,10.7324662 62.8972555,10.8575068 63.0222463,10.9333648 C63.1057402,11.4408214 63.0362453,11.8019804 63.2663951,12.2312866 C63.5247096,12.7129014 64.0028413,13.0673916 64.3553155,13.4177138 C64.6521271,13.7126012 64.8399467,13.8545224 65.1427579,14.0754275 C65.3387436,14.218599 65.4242374,14.2267266 65.5852256,14.4611778 C65.7268819,14.6674949 66.0375259,15.4940134 66.0980214,15.7434695 C66.2596763,16.4118117 66.0473585,16.8127753 65.9565318,17.3454484 C65.8895367,17.7387012 65.8722046,18.1427908 65.893703,18.5564669 C65.9073687,18.8213446 66.1206864,19.3427641 66.1113538,19.5338678 C66.0870222,20.0261111 65.4559017,20.4920959 65.1235927,20.7373839 C65.063896,20.7814465 65.0024774,20.8193821 64.9398695,20.853217 Z" id="Combined-Shape" fill="#FC6723"></path>
                <path d="M65.3912994,62.0792403 L35.0698648,62.0792403 L35.0698648,35.2049348 L56.1322641,56.2510777 L64.4043734,47.9683976 C64.6832356,48.4229102 64.9651909,48.7873334 65.2655008,49.2211878 C65.5299623,49.6034076 65.7301267,50.0630417 66.0488479,50.3644722 C66.3026901,50.6045198 66.6791622,50.6865747 66.8436869,51.1514822 C66.9612253,51.4841316 66.8867455,51.9519923 66.9379504,52.3126964 C66.967335,52.5189939 67.088801,52.7320413 67.1171674,53.0263 C67.1398604,53.2614959 67.1616807,53.7951693 67.123568,54.0242481 C67.0781819,54.296991 66.8650707,54.3725069 66.8650707,54.6564295 C66.8650707,55.1867279 67.4700736,55.540682 66.9042017,55.970152 C66.5776253,56.2177933 65.9107984,56.0427147 65.5907681,56.3437233 C64.9745642,56.9233812 65.7254717,57.4730858 65.50596,58.1613768 C65.444136,58.3554399 65.1991673,58.4210416 65.1373432,58.6151047 C65.0040942,59.0336058 65.2033859,59.1451921 65.2726288,59.5250916 C65.3702876,60.0601827 65.4456651,61.1558306 65.3912994,62.0792403 Z" id="Combined-Shape" fill="#FC6723"></path>
                <polygon id="Shape" fill="#FC6723" points="56.1322641 56.2510777 76.6072013 35.7499759 76.6072013 35.7661653 56.1430432 56.2564741"></polygon>
                <polygon id="Shape" fill="#FFFFFF" points="35.0860335 35.2049348 56.1322641 56.2510777 56.1268745 56.2564741 35.0860335 35.2211241"></polygon>
                <polygon id="Shape" fill="#FFFFFF" points="76.6190627 35.7499759 76.6190627 62.0792403 76.6072013 62.0792403 76.6072013 35.7661653"></polygon>
            </g>
            <g id="logo_cm-copy" transform="translate(124.412316, 42.317691) scale(-1, 1) rotate(-375.000000) translate(-124.412316, -42.317691) translate(91.014258, 11.249730)">
                <path d="M64.9398695,20.853217 C56.5059277,18.3256564 47.2762052,19.3379163 39.479666,23.8899967 C29.4536003,29.7438065 23.3483486,40.5460035 23.4984802,52.1659674 C23.4921456,55.5332472 24.0234322,58.8798935 25.0722316,62.0792403 L15.1500523,62.0792403 C15.1470764,53.7035128 8.36503852,46.915224 0,46.9152245 L0,15.9989803 C2.76705067,16.0114822 5.48467744,15.2649528 7.85797801,13.8404015 C8.06278128,13.7162833 8.26758455,13.5813721 8.47238782,13.4464609 C8.87480827,13.1694433 9.26285657,12.8780352 9.63653271,12.5722365 C13.1433027,9.68878926 15.1680835,5.37840236 15.1500523,0.834964531 C15.1552331,0.683145643 15.1443939,0.531203268 15.1177149,0.381662993 L63.8041159,0.381662993 C63.7612781,0.480710499 63.7167205,0.578674066 63.6693657,0.675031438 C63.3792202,1.26689043 63.0987407,1.48987955 63.0744092,2.20677917 C63.0562438,2.73611784 63.0730759,3.27796058 63.0785755,3.80938326 C63.0852417,4.45334251 62.903755,4.80554029 62.8105951,5.40990334 C62.7142688,6.0371905 62.9982481,6.18515525 63.0927412,6.67698173 C63.1764017,7.11462394 63.0945744,7.80234741 63.0222463,8.22540155 C62.9854157,8.44213864 62.849259,8.62553157 62.8170946,8.93188111 C62.8240941,9.1465342 62.826094,9.36327129 62.8230942,9.58000838 C62.8230942,9.86343381 62.7567657,10.2844039 62.8097618,10.5574093 C62.8264273,10.7324662 62.8972555,10.8575068 63.0222463,10.9333648 C63.1057402,11.4408214 63.0362453,11.8019804 63.2663951,12.2312866 C63.5247096,12.7129014 64.0028413,13.0673916 64.3553155,13.4177138 C64.6521271,13.7126012 64.8399467,13.8545224 65.1427579,14.0754275 C65.3387436,14.218599 65.4242374,14.2267266 65.5852256,14.4611778 C65.7268819,14.6674949 66.0375259,15.4940134 66.0980214,15.7434695 C66.2596763,16.4118117 66.0473585,16.8127753 65.9565318,17.3454484 C65.8895367,17.7387012 65.8722046,18.1427908 65.893703,18.5564669 C65.9073687,18.8213446 66.1206864,19.3427641 66.1113538,19.5338678 C66.0870222,20.0261111 65.4559017,20.4920959 65.1235927,20.7373839 C65.063896,20.7814465 65.0024774,20.8193821 64.9398695,20.853217 Z" id="Combined-Shape" fill="#FC6723"></path>
                <path d="M49.2074067,62.0792403 L35.0698648,62.0792403 L35.0698648,35.2049348 L49.2789939,49.403097 C49.2268923,49.5437454 49.197704,49.7190366 49.2005046,49.949516 C49.2086707,50.6126482 49.623807,51.1949207 49.4861504,51.8795182 C49.363326,52.4907584 48.8448639,52.7247928 48.4993892,53.1545158 C48.2465743,53.4687846 47.9779273,53.8555769 47.7376116,54.1967294 C47.2538136,54.8836193 47.1876518,56.957835 47.6039547,57.7297525 C47.7839415,58.063611 48.2705726,58.312025 48.39723,58.6685992 C48.6198804,59.2952612 48.0690873,59.6418321 47.9619285,60.1199041 C48.3074032,60.3022551 48.8300317,61.0791742 49.030517,61.472427 C49.179516,61.7648254 49.2235243,61.9457058 49.2074067,62.0792403 Z" id="Combined-Shape" fill="#FC6723"></path>
                <polygon id="Shape" fill="#FFFFFF" points="35.0860335 35.2049348 56.1322641 56.2510777 56.1268745 56.2564741 35.0860335 35.2211241"></polygon>
            </g>
        </g>
    </g>
</svg>