<svg xmlns="http://www.w3.org/2000/svg" width="403" height="42" viewBox="0 0 403 42">
    <g fill="none" fill-rule="nonzero">
        <path fill="#4C4C4C" d="M103.36 36.15c-1.494.503-3.06.76-4.637.762a15 15 0 0 1-7.002-1.58 11.464 11.464 0 0 1-4.726-4.477 13.095 13.095 0 0 1-1.679-6.7 12.46 12.46 0 0 1 1.769-6.641 12.182 12.182 0 0 1 4.726-4.474 13.3 13.3 0 0 1 6.381-1.584c3.742 0 6.833 1.015 9.274 3.046l-2.776 3.568a11.993 11.993 0 0 0-2.72-1.492 8.876 8.876 0 0 0-3.306-.615 7.612 7.612 0 0 0-3.988 1.083A7.739 7.739 0 0 0 91.842 20a8.472 8.472 0 0 0-1.034 4.155 8.382 8.382 0 0 0 4.801 7.414 8.534 8.534 0 0 0 8.843-.926l2.834 3.394c-1.169.934-2.5 1.65-3.926 2.114zM135.607 12.101v24.224h-5.496v-3.978a12.704 12.704 0 0 1-3.792 3.131 11.028 11.028 0 0 1-5.609 1.434 13.15 13.15 0 0 1-6.291-1.495 10.882 10.882 0 0 1-4.423-4.344c-1.083-1.912-1.623-4.188-1.62-6.83.002-2.64.563-4.95 1.682-6.93a11.846 11.846 0 0 1 4.547-4.566 12.75 12.75 0 0 1 6.35-1.612c1.9-.045 3.778.421 5.433 1.349a11.036 11.036 0 0 1 3.723 3.51l.414-3.862 5.082-.03zm-8.243 18.63a7.419 7.419 0 0 0 2.758-4.534v-4.78a7.479 7.479 0 0 0-2.955-4.187 8.623 8.623 0 0 0-5.14-1.608 8.064 8.064 0 0 0-4.043 1.055 7.805 7.805 0 0 0-2.955 2.954 8.445 8.445 0 0 0-1.093 4.299 8.307 8.307 0 0 0 1.124 4.271 8.502 8.502 0 0 0 3.01 3.074 7.886 7.886 0 0 0 4.137 1.137 8.208 8.208 0 0 0 5.157-1.68zM143.043 35.919a9.654 9.654 0 0 1-3.989-2.753l2.365-3.158a11.75 11.75 0 0 0 3.103 2.161c1.002.49 2.102.75 3.22.762a5.996 5.996 0 0 0 3.188-.762 2.548 2.548 0 0 0 1.241-2.339 2.663 2.663 0 0 0-.768-1.987 4.69 4.69 0 0 0-1.741-1.113c-.649-.228-1.741-.578-3.279-1.052-4.176-1.327-6.263-3.688-6.26-7.082a6.938 6.938 0 0 1 2.275-5.207c1.512-1.446 3.628-2.167 6.347-2.165a15.074 15.074 0 0 1 4.609.645 11.162 11.162 0 0 1 3.72 2.049l-2.186 3.336a6.682 6.682 0 0 0-2.393-1.584 8.41 8.41 0 0 0-2.758-.642 4.965 4.965 0 0 0-2.837.792 2.557 2.557 0 0 0-.386 3.985c.457.45 1 .807 1.596 1.048.552.228 1.634.589 3.248 1.083 2.01.683 3.575 1.523 4.695 2.578s1.686 2.475 1.686 4.268a7.512 7.512 0 0 1-2.482 5.805c-1.655 1.523-3.998 2.284-7.03 2.284a14.418 14.418 0 0 1-5.184-.952zM162.114 1.219a3.386 3.386 0 0 1 2.302-.878c.845-.01 1.66.305 2.276.878.632.544.989 1.336.975 2.165a2.795 2.795 0 0 1-.975 2.165 3.303 3.303 0 0 1-2.276.88 3.407 3.407 0 0 1-2.302-.88 2.765 2.765 0 0 1-1.004-2.165 2.765 2.765 0 0 1 1.004-2.165zm4.902 10.882v24.224h-5.492V12.1h5.492zM193.56 13.184a6.902 6.902 0 0 1 2.304 5.235v17.906h-5.568V20.293c-.076-1.366-.488-2.438-1.238-3.216-.748-.782-1.872-1.189-3.368-1.23a6.68 6.68 0 0 0-5.374 2.572c-1.418 1.718-2.127 3.904-2.127 6.556v11.35h-5.475V12.1h4.961l.345 4.682a9.557 9.557 0 0 1 3.899-4.125 11.79 11.79 0 0 1 5.964-1.492c2.298 0 4.19.673 5.678 2.018zM201.114 17.456a12.46 12.46 0 0 1 4.826-4.651 14.364 14.364 0 0 1 7.002-1.707c2.425-.04 4.818.549 6.943 1.707a12.156 12.156 0 0 1 4.74 4.61 12.902 12.902 0 0 1 1.682 6.552 13.03 13.03 0 0 1-1.682 6.584 12.045 12.045 0 0 1-4.754 4.654 14.309 14.309 0 0 1-7.03 1.707 14.672 14.672 0 0 1-6.894-1.612 11.915 11.915 0 0 1-4.826-4.534 13 13 0 0 1-1.724-6.788 12.595 12.595 0 0 1 1.717-6.522zm4.826 10.797a7.815 7.815 0 0 0 2.837 3.039 7.836 7.836 0 0 0 9.653-1.284 8.405 8.405 0 0 0 2.244-5.969 8.513 8.513 0 0 0-2.244-6 7.397 7.397 0 0 0-5.674-2.427 7.29 7.29 0 0 0-4.016 1.14 8.196 8.196 0 0 0-2.807 3.073 9.142 9.142 0 0 0 0 8.428h.007z"/>
        <path fill="#FC6723" d="M268.762 13.095c1.4 1.325 2.139 3.081 2.217 5.269v17.96h-5.495V20.352c-.118-2.848-1.416-4.349-3.896-4.504a6.22 6.22 0 0 0-3.813 1.257 8.474 8.474 0 0 0-2.627 3.309 11.027 11.027 0 0 0-1.006 4.384v11.528h-5.55V20.35c-.118-2.848-1.457-4.349-4.017-4.504a6.116 6.116 0 0 0-3.75 1.257 8.395 8.395 0 0 0-2.631 3.336 10.537 10.537 0 0 0-.945 4.419v11.466h-5.495V12.1h4.961l.414 4.566c1.818-3.492 5.487-5.651 9.453-5.563 1.97 0 3.623.456 4.96 1.366a6.204 6.204 0 0 1 2.6 3.756 11.406 11.406 0 0 1 3.899-3.756 9.918 9.918 0 0 1 5.081-1.366c2.363 0 4.243.664 5.64 1.991zM276.23 17.456a12.437 12.437 0 0 1 4.843-4.651 14.357 14.357 0 0 1 6.998-1.707c2.425-.04 4.818.548 6.943 1.707a12.156 12.156 0 0 1 4.723 4.61 12.902 12.902 0 0 1 1.686 6.552c.03 2.303-.551 4.574-1.686 6.584a12.045 12.045 0 0 1-4.754 4.654 14.309 14.309 0 0 1-7.03 1.707 14.658 14.658 0 0 1-6.894-1.612 11.894 11.894 0 0 1-4.826-4.534 13 13 0 0 1-1.724-6.788 12.595 12.595 0 0 1 1.72-6.522zm4.843 10.797a7.815 7.815 0 0 0 2.837 3.039 7.832 7.832 0 0 0 9.653-1.284 8.405 8.405 0 0 0 2.244-5.969 8.513 8.513 0 0 0-2.244-6 7.393 7.393 0 0 0-5.671-2.427 7.29 7.29 0 0 0-4.017 1.14 8.169 8.169 0 0 0-2.806 3.073 9.101 9.101 0 0 0 0 8.428h.004zM325.778 13.184a6.902 6.902 0 0 1 2.303 5.235v17.906h-5.55V20.293c-.076-1.366-.493-2.438-1.241-3.216-.748-.779-1.872-1.189-3.365-1.23a6.68 6.68 0 0 0-5.378 2.572c-1.418 1.718-2.126 3.904-2.123 6.556v11.35h-5.495V12.1h4.96l.345 4.682a9.537 9.537 0 0 1 3.9-4.125 11.79 11.79 0 0 1 5.967-1.492c2.289 0 4.181.673 5.677 2.018zM351.148 30.12l2.554 4.026a17.082 17.082 0 0 1-4.24 2.05c-1.42.47-2.905.718-4.402.733a14.592 14.592 0 0 1-7.116-1.67 11.726 11.726 0 0 1-4.695-4.592 13.193 13.193 0 0 1-1.655-6.61c-.022-2.3.6-4.558 1.8-6.526a13.019 13.019 0 0 1 4.933-4.678 13.922 13.922 0 0 1 6.853-1.732c3.19 0 5.859.928 8.005 2.783 2.147 1.856 3.613 4.44 4.4 7.752l-19.375 6.73a7.624 7.624 0 0 0 2.865 2.834 8.118 8.118 0 0 0 4.105 1.024c2.046-.009 4.035-.717 5.968-2.124zm-11.925-12.343c-1.46 1.561-2.188 3.55-2.185 5.965-.007.456.013.912.058 1.366l14.238-5.21a8.014 8.014 0 0 0-2.513-3.218 6.51 6.51 0 0 0-4.044-1.232 7.273 7.273 0 0 0-5.554 2.329zM368.564 14.341a13.658 13.658 0 0 1 3.692-2.339c1.08-.492 2.241-.79 3.427-.88l-.238 5.463a9.034 9.034 0 0 0-4.826 1.048 8.581 8.581 0 0 0-3.368 3.247 8.654 8.654 0 0 0-1.197 4.388v11.06h-5.495V12.101h4.902l.414 5.734a10.792 10.792 0 0 1 2.689-3.494zM377.448 17.456a12.436 12.436 0 0 1 4.826-4.651 14.35 14.35 0 0 1 6.998-1.707c2.425-.04 4.819.549 6.944 1.707a12.156 12.156 0 0 1 4.74 4.61c1.142 2 1.728 4.265 1.7 6.563.03 2.302-.551 4.573-1.687 6.583a12.045 12.045 0 0 1-4.753 4.654 14.309 14.309 0 0 1-7.03 1.707 14.683 14.683 0 0 1-6.912-1.611 11.905 11.905 0 0 1-4.826-4.535 12.97 12.97 0 0 1-1.744-6.788 12.565 12.565 0 0 1 1.744-6.532zm4.826 10.797a7.808 7.808 0 0 0 2.834 3.039 7.836 7.836 0 0 0 9.653-1.284 8.405 8.405 0 0 0 2.244-5.969 8.513 8.513 0 0 0-2.244-6 7.393 7.393 0 0 0-5.671-2.427 7.29 7.29 0 0 0-4.016 1.14 8.169 8.169 0 0 0-2.807 3.073 9.101 9.101 0 0 0 0 8.428h.007z"/>
        <g>
            <path fill="#FC6723" d="M49.012 25.258v16.66h-26.58V24.913l.01.01v-.01L35.906 38.23 49 25.258v.01z"/>
            <path fill="#FC6723" d="M71.258 12.76v19.563a9.724 9.724 0 0 0-6.853 2.807 9.539 9.539 0 0 0-2.835 6.788h-6.346a19.82 19.82 0 0 0 1.006-6.273c.096-7.352-3.809-14.187-10.222-17.891a20.772 20.772 0 0 0-20.755 0C18.84 21.458 14.935 28.293 15.03 35.645a19.82 19.82 0 0 0 1.006 6.273H9.691c-.002-5.3-4.34-9.595-9.691-9.595V12.76a9.761 9.761 0 0 0 5.026-1.365c.131-.079.262-.164.393-.25.258-.175.506-.36.745-.553A9.525 9.525 0 0 0 9.69 3.165a1.353 1.353 0 0 0-.021-.286h51.918c-.015.094-.02.19-.018.286a9.525 9.525 0 0 0 3.517 7.42c.241.195.49.38.748.554a9.754 9.754 0 0 0 5.423 1.622z"/>
            <path fill="#FC6723" d="M35.905 38.23L49 25.258v.01l-13.09 12.966z"/>
            <path fill="#FC6723" d="M71.258 12.764v19.559a9.724 9.724 0 0 0-6.853 2.807 9.539 9.539 0 0 0-2.835 6.788h-6.346a19.82 19.82 0 0 0 1.006-6.273c.096-7.352-3.809-14.187-10.222-17.891a20.772 20.772 0 0 0-20.755 0C18.84 21.458 14.935 28.293 15.03 35.645a19.82 19.82 0 0 0 1.006 6.273H9.691c-.002-5.3-4.34-9.595-9.691-9.595v-19.56a9.73 9.73 0 0 0 4.747-1.225l.28-.16c.13-.079.261-.164.392-.25a8.38 8.38 0 0 0 .745-.543 9.525 9.525 0 0 0 3.527-7.42 1.353 1.353 0 0 0-.021-.286h51.918c-.015.094-.02.19-.018.286a9.525 9.525 0 0 0 3.517 7.42c.243.194.496.376.758.543.128.086.259.171.393.25l.28.16a9.73 9.73 0 0 0 4.74 1.226z"/>
            <path fill="#FFF" d="M22.443 24.913L35.905 38.23l-.004.004-13.458-13.31z"/>
        </g>
    </g>
</svg>
