<svg xmlns="http://www.w3.org/2000/svg" width="72" height="40" viewBox="0 0 72 40">
    <g fill="none" fill-rule="nonzero">
        <path fill="#FC6723" d="M49.012 23.258v16.66h-26.58V22.913l.01.01v-.01L35.906 36.23 49 23.258v.01z"/>
        <path fill="#FC6723" d="M71.258 10.76v19.563a9.724 9.724 0 0 0-6.853 2.807 9.539 9.539 0 0 0-2.835 6.788h-6.346a19.82 19.82 0 0 0 1.006-6.273c.096-7.352-3.809-14.187-10.222-17.891a20.772 20.772 0 0 0-20.755 0C18.84 19.458 14.935 26.293 15.03 33.645a19.82 19.82 0 0 0 1.006 6.273H9.691c-.002-5.3-4.34-9.595-9.691-9.595V10.76a9.761 9.761 0 0 0 5.026-1.365c.131-.079.262-.164.393-.25.258-.175.506-.36.745-.553A9.525 9.525 0 0 0 9.69 1.165 1.353 1.353 0 0 0 9.67.88h51.918c-.015.094-.02.19-.018.286a9.525 9.525 0 0 0 3.517 7.42c.241.195.49.38.748.554a9.754 9.754 0 0 0 5.423 1.622z"/>
        <path fill="#FC6723" d="M35.905 36.23L49 23.258v.01l-13.09 12.966z"/>
        <path fill="#FC6723" d="M71.258 10.764v19.559a9.724 9.724 0 0 0-6.853 2.807 9.539 9.539 0 0 0-2.835 6.788h-6.346a19.82 19.82 0 0 0 1.006-6.273c.096-7.352-3.809-14.187-10.222-17.891a20.772 20.772 0 0 0-20.755 0C18.84 19.458 14.935 26.293 15.03 33.645a19.82 19.82 0 0 0 1.006 6.273H9.691c-.002-5.3-4.34-9.595-9.691-9.595v-19.56a9.73 9.73 0 0 0 4.747-1.225l.28-.16c.13-.079.261-.164.392-.25a8.38 8.38 0 0 0 .745-.543 9.525 9.525 0 0 0 3.527-7.42A1.353 1.353 0 0 0 9.67.88h51.918c-.015.094-.02.19-.018.286a9.525 9.525 0 0 0 3.517 7.42c.243.194.496.376.758.543.128.086.259.171.393.25l.28.16a9.73 9.73 0 0 0 4.74 1.226z"/>
        <path fill="#FFF" d="M22.443 22.913L35.905 36.23l-.004.004-13.458-13.31z"/>
    </g>
</svg>
