<svg xmlns="http://www.w3.org/2000/svg" width="40" height="22" viewBox="0 0 40 22">
    <g fill="#FFF" fill-rule="nonzero">
        <path d="M27.485 12.585v9.368H12.652V12.39l.005.005v-.005l7.515 7.488 7.308-7.294v.005z"/>
        <path d="M39.902 5.558v10.999a5.402 5.402 0 0 0-2.582.646l-.115.064c-.075.043-.149.088-.222.131l-.11.072a5.328 5.328 0 0 0-1.227 1.143c-.054.069-.105.132-.156.207-.025.035-.05.071-.073.108a4.71 4.71 0 0 0-.274.443 5.508 5.508 0 0 0-.323.714 5.35 5.35 0 0 0-.327 1.86h-3.541c.375-1.139.565-2.33.562-3.528 0-6.337-5.147-11.473-11.497-11.473S8.52 12.08 8.52 18.417c-.002 1.198.187 2.39.563 3.528H5.545a5.39 5.39 0 0 0-.284-1.729 4.922 4.922 0 0 0-.308-.73c-.021-.04-.04-.079-.062-.117a5.785 5.785 0 0 0-.145-.251c-.041-.065-.082-.132-.132-.193a5.405 5.405 0 0 0-1.462-1.46l-.108-.072a2.994 2.994 0 0 0-.223-.132c-.051-.029-.103-.058-.154-.084l-.193-.099a5.394 5.394 0 0 0-2.345-.527V5.558a5.536 5.536 0 0 0 1.22-.137 5.404 5.404 0 0 0 1.885-.837 5.253 5.253 0 0 0 .776-.66c.035-.035.07-.07.102-.105.065-.072.132-.145.192-.22a4.346 4.346 0 0 0 .382-.524c.048-.073.093-.146.132-.22.023-.038.044-.078.064-.116A5.372 5.372 0 0 0 5.545.162.836.836 0 0 0 5.53 0h28.974a.836.836 0 0 0-.01.162 5.373 5.373 0 0 0 1.584 3.82l.092.091a5.404 5.404 0 0 0 3.732 1.485z"/>
        <path d="M27.48 12.585v.005l-7.306 7.292-.002-.003z"/>
        <path d="M39.902 5.56v10.997a5.402 5.402 0 0 0-2.582.646l-.115.064c-.075.043-.149.088-.222.131l-.11.072a5.683 5.683 0 0 0-.61.48 5.537 5.537 0 0 0-.617.663c-.054.069-.105.132-.156.207-.025.035-.05.071-.073.108a4.71 4.71 0 0 0-.274.443 5.508 5.508 0 0 0-.323.714 5.35 5.35 0 0 0-.327 1.86h-3.541c.375-1.139.565-2.33.562-3.528 0-6.337-5.147-11.473-11.497-11.473S8.52 12.08 8.52 18.417c-.002 1.198.187 2.39.563 3.528H5.545a5.39 5.39 0 0 0-.284-1.729 4.922 4.922 0 0 0-.308-.73c-.021-.04-.04-.079-.062-.117a5.785 5.785 0 0 0-.145-.251c-.041-.065-.082-.132-.132-.193a5.405 5.405 0 0 0-1.462-1.46l-.108-.072a2.994 2.994 0 0 0-.223-.132c-.051-.029-.103-.058-.154-.084l-.193-.099a5.394 5.394 0 0 0-2.345-.527V5.56c.132 0 .264 0 .396-.014.132-.015.257-.023.383-.041.1-.013.2-.03.299-.051.05-.01.099-.02.149-.032l.132-.032a4.215 4.215 0 0 0 .376-.11 5.32 5.32 0 0 0 1.271-.622 4.874 4.874 0 0 0 .34-.246c.192-.15.373-.312.542-.487l.102-.105c.064-.072.132-.145.191-.22a4.986 4.986 0 0 0 .699-1.092A5.372 5.372 0 0 0 5.545.162.836.836 0 0 0 5.53 0h28.974a.836.836 0 0 0-.01.162 5.373 5.373 0 0 0 1.584 3.82l.092.091a5.322 5.322 0 0 0 1.04.774c.065.038.131.075.2.109a5.412 5.412 0 0 0 2.492.603z"/>
        <path d="M20.172 19.879l-.003.003-7.512-7.486v-.005z"/>
    </g>
</svg>
