<?xml version="1.0" encoding="UTF-8"?>
<svg width="1366px" height="540px" viewBox="0 0 1366 540" version="1.1" xmlns="http://www.w3.org/2000/svg" xmlns:xlink="http://www.w3.org/1999/xlink">
    <!-- Generator: sketchtool 50 (54983) - http://www.bohemiancoding.com/sketch -->
    <title>A4E72BD6-9A83-4785-BBF3-BDC4E0005B20</title>
    <desc>Created with sketchtool.</desc>
    <defs>
        <polygon id="path-1" points="0.0710436287 0.0952309146 947.248383 0.0952309146 947.248383 208.579358 0.0710436287 208.579358"></polygon>
    </defs>
    <g id="mockup" stroke="none" stroke-width="1" fill="none" fill-rule="evenodd">
        <g id="homepage">
            <g id="bg" transform="translate(0.000000, -606.000000)">
                <rect id="bg_solid" fill="#FFFFFF" x="0" y="606" width="1366" height="540"></rect>
                <g id="img_homepage_dots" opacity="0.200000003" transform="translate(1196.774903, 527.850424) rotate(211.000000) translate(-1196.774903, -527.850424) translate(722.774903, 196.850424)">
                    <path d="M288.805376,343.388117 C283.142014,343.370356 278.473264,348.034371 278.502865,353.677603 C278.532467,359.197693 283.067418,363.784743 288.613558,363.903149 C294.272183,364.025107 298.945669,359.440425 298.984743,353.726149 C299.025002,347.962143 294.53978,343.405878 288.805376,343.388117" id="Fill-445" fill="#797979"></path>
                    <path d="M270.326928,325.103855 C264.781972,325.099119 260.200842,329.7359 260.269518,335.283223 C260.337009,340.708588 264.870777,345.206834 270.289038,345.225779 C275.837545,345.244724 280.351184,340.647017 280.294349,335.035755 C280.238698,329.54053 275.790183,325.108592 270.326928,325.103855" id="Fill-468" fill="#797979"></path>
                    <path d="M307.199755,325.102671 C301.748341,325.14885 297.26312,329.624598 297.212205,335.068908 C297.16129,340.604391 301.781494,345.256565 307.301584,345.225779 C312.752999,345.19381 317.190857,340.739374 317.237036,335.25007 C317.285582,329.632887 312.757735,325.056493 307.199755,325.102671" id="Fill-469" fill="#797979"></path>
                    <path d="M288.953383,306.865772 C283.664185,306.743814 279.124497,311.111813 279.001355,316.441269 C278.877028,321.90334 283.310151,326.483286 288.746173,326.506967 C294.087469,326.530648 298.482702,322.169754 298.538353,316.790567 C298.595188,311.410196 294.325465,306.991282 288.953383,306.865772" id="Fill-483" fill="#797979"></path>
                    <path d="M325.816738,306.864588 C320.512147,306.797096 316.026926,311.185224 315.944042,316.520601 C315.858789,321.981488 320.342826,326.538937 325.768192,326.506967 C331.120145,326.477366 335.471567,322.090422 335.483408,316.711235 C335.496432,311.333232 331.17698,306.932079 325.816738,306.864588" id="Fill-484" fill="#797979"></path>
                    <path d="M362.759425,306.864588 C357.454834,306.797096 352.969613,311.185224 352.886729,316.520601 C352.801476,321.981488 357.285513,326.538937 362.710878,326.506967 C368.062832,326.477366 372.414254,322.090422 372.426095,316.711235 C372.439119,311.333232 368.119667,306.932079 362.759425,306.864588" id="Fill-485" fill="#797979"></path>
                    <path d="M270.232203,288.624136 C264.996287,288.682155 260.73959,293.035945 260.77748,298.295542 C260.814186,303.552771 265.152583,307.836701 270.392051,307.790523 C275.630335,307.744345 279.932026,303.364505 279.876375,298.13451 C279.820725,292.89741 275.430228,288.567301 270.232203,288.624136" id="Fill-511" fill="#797979"></path>
                    <path d="M307.301584,288.62532 C302.076325,288.596903 297.74148,292.915171 297.720167,298.168848 C297.69767,303.439101 301.960287,307.760922 307.209228,307.790523 C312.436855,307.820125 316.787093,303.506592 316.819062,298.261204 C316.849848,293.033577 312.523291,288.653738 307.301584,288.62532" id="Fill-512" fill="#797979"></path>
                    <path d="M344.230062,288.62532 C339.00362,288.606375 334.678247,292.927012 334.662854,298.183056 C334.647461,303.452126 338.917183,307.76921 344.164939,307.790523 C349.39375,307.811836 353.739252,303.4912 353.761749,298.246996 C353.784247,293.018185 349.451769,288.644265 344.230062,288.62532" id="Fill-513" fill="#797979"></path>
                    <path d="M381.205903,288.62532 C375.984196,288.585062 371.636326,292.898594 371.605541,298.151087 C371.574755,303.422524 375.825532,307.750265 381.075656,307.790523 C386.302099,307.831965 390.659442,303.527905 390.704436,298.280149 C390.749431,293.056075 386.429978,288.666762 381.205903,288.62532" id="Fill-515" fill="#797979"></path>
                    <path d="M325.710173,289.05395 C330.851363,289.062239 335.138846,284.727393 335.045305,279.618172 C334.954133,274.578811 330.757822,270.427495 325.742142,270.415654 C320.583191,270.402629 316.404641,274.658143 316.460292,279.869193 C316.514759,284.944076 320.644762,289.045662 325.710173,289.05395" id="Fill-529" fill="#797979"></path>
                    <path d="M288.620662,289.052766 C293.754748,289.143939 298.095514,284.894346 298.107355,279.763812 C298.119195,274.645118 293.770141,270.341058 288.662104,270.415654 C283.603798,270.49025 279.525894,274.640382 279.516421,279.722369 C279.506949,284.817382 283.551699,288.962777 288.620662,289.052766" id="Fill-530" fill="#797979"></path>
                    <path d="M251.84848,289.05395 C256.877185,289.049214 261.067575,284.919211 261.161116,279.877481 C261.254656,274.772997 256.956517,270.413286 251.833087,270.415654 C246.783069,270.418022 242.634121,274.537369 242.574918,279.6087 C242.514531,284.828038 246.668215,289.058686 251.84848,289.05395" id="Fill-531" fill="#797979"></path>
                    <path d="M399.447539,289.052766 C404.581625,289.145123 408.922391,284.89553 408.935416,279.764996 C408.94844,274.647486 404.60057,270.342242 399.491349,270.415654 C394.434227,270.489066 390.355138,274.639198 390.344482,279.721185 C390.335009,284.816198 394.378576,288.961593 399.447539,289.052766" id="Fill-551" fill="#797979"></path>
                    <path d="M362.722719,289.05395 C367.752608,289.023165 371.931157,284.86356 371.99036,279.830119 C372.050748,274.71853 367.733663,270.383684 362.613785,270.415654 C357.559031,270.447624 353.442053,274.577627 353.402979,279.656062 C353.362721,284.86948 357.544823,289.08592 362.722719,289.05395" id="Fill-552" fill="#797979"></path>
                    <path d="M307.171338,270.309089 C312.107686,270.356451 316.249529,266.301044 316.312285,261.357591 C316.373856,256.468606 312.256877,252.271111 307.34421,252.216645 C302.39839,252.162178 298.301541,256.206928 298.262467,261.184719 C298.222209,266.183822 302.20302,270.261726 307.171338,270.309089" id="Fill-553" fill="#797979"></path>
                    <path d="M270.24878,270.309089 C275.185128,270.345795 279.319867,266.279731 279.369598,261.338646 C279.418144,256.44374 275.295245,252.259271 270.382579,252.216645 C265.43439,252.174018 261.350565,256.223505 261.31978,261.204848 C261.28781,266.202767 265.279278,270.272383 270.24878,270.309089" id="Fill-554" fill="#797979"></path>
                    <path d="M233.341615,270.309089 C238.277963,270.325665 242.403229,266.235921 242.426911,261.301941 C242.449408,256.397562 238.315853,252.235589 233.403186,252.216645 C228.450261,252.1977 224.391301,256.255475 224.375909,261.240369 C224.3617,266.235921 228.372113,270.292512 233.341615,270.309089" id="Fill-555" fill="#797979"></path>
                    <path d="M455.035626,270.309089 C459.969606,270.304352 464.086584,266.187374 464.083032,261.264051 C464.078296,256.353752 459.930532,252.211908 455.021417,252.216645 C450.067308,252.221381 446.030846,256.290997 446.033214,261.278259 C446.034398,266.270258 450.06494,270.312641 455.035626,270.309089" id="Fill-575" fill="#797979"></path>
                    <path d="M417.955588,270.309089 C422.8872,270.381316 427.044436,266.34959 427.140345,261.402586 C427.23507,256.518336 423.134669,252.298345 418.217266,252.216645 C413.276181,252.136128 409.14973,256.170222 409.089343,261.140908 C409.03014,266.14238 412.989639,270.236861 417.955588,270.309089" id="Fill-576" fill="#797979"></path>
                    <path d="M381.25445,270.307905 C386.184877,270.247517 390.275806,266.06068 390.197658,261.159853 C390.117142,256.228241 385.935041,252.146785 381.031846,252.21546 C376.074185,252.28532 372.09811,256.386906 372.146656,261.382457 C372.195203,266.359063 376.2885,270.369476 381.25445,270.307905" id="Fill-577" fill="#797979"></path>
                    <path d="M344.295186,270.307905 C349.227982,270.255806 353.322463,266.083177 353.253787,261.17643 C353.186296,256.247186 349.010115,252.157441 344.105736,252.216645 C339.148075,252.275848 335.163711,256.371513 335.203969,261.36588 C335.245412,266.346038 339.326868,270.361187 344.295186,270.307905" id="Fill-578" fill="#797979"></path>
                    <path d="M214.807516,251.550018 C219.646771,251.598565 223.70573,247.568023 223.670209,242.751265 C223.635871,238.051729 219.697686,234.093415 214.993413,234.03066 C210.161263,233.96672 206.172163,237.964109 206.193476,242.849542 C206.213605,247.62841 210.049961,251.502656 214.807516,251.550018" id="Fill-582" fill="#797979"></path>
                    <path d="M251.782172,251.550018 C256.510126,251.580804 260.461336,247.752737 260.605791,243.002286 C260.750247,238.234074 256.716152,234.07447 251.904131,234.031844 C247.179729,233.989217 243.226151,237.852807 243.137347,242.598521 C243.046174,247.51474 246.913316,251.519233 251.782172,251.550018" id="Fill-583" fill="#797979"></path>
                    <path d="M288.643159,251.550018 C293.480046,251.626982 297.556767,247.624858 297.555582,242.800996 C297.555582,237.997262 293.439788,233.948959 288.644343,234.033028 C283.902181,234.115912 280.080034,238.028048 280.07885,242.799812 C280.076482,247.582232 283.886788,251.475423 288.643159,251.550018" id="Fill-584" fill="#797979"></path>
                    <path d="M362.519061,251.550018 C367.354764,251.631719 371.435036,247.63433 371.440956,242.809284 C371.446877,238.007919 367.335819,233.953696 362.53919,234.033028 C357.797027,234.111176 353.96896,238.019759 353.964224,242.790339 C353.958303,247.573943 357.76269,251.469502 362.519061,251.550018" id="Fill-585" fill="#797979"></path>
                    <path d="M399.596731,251.551203 C404.438354,251.555939 408.471264,247.480403 408.380091,242.674301 C408.291287,237.95582 404.332972,234.046052 399.629884,234.031844 C394.790629,234.016451 390.852444,238.0316 390.908095,242.925322 C390.960193,247.694718 394.84036,251.545282 399.596731,251.551203" id="Fill-588" fill="#797979"></path>
                    <path d="M325.578742,251.550018 C330.413261,251.630535 334.493533,247.633146 334.498269,242.8081 C334.503006,238.005551 330.391948,233.953696 325.595319,234.033028 C320.853156,234.111176 317.026273,238.020943 317.021537,242.791523 C317.015616,247.575127 320.822371,251.470686 325.578742,251.550018" id="Fill-594" fill="#797979"></path>
                    <path d="M473.380275,251.550018 C478.218346,251.612774 482.287962,247.597625 482.270201,242.777314 C482.253624,238.080146 478.326096,234.109992 473.618271,234.031844 C468.788489,233.950144 464.782812,237.940427 464.792285,242.823493 C464.800573,247.602361 468.625088,251.488447 473.380275,251.550018" id="Fill-601" fill="#797979"></path>
                    <path d="M436.495607,251.550018 C441.334862,251.580804 445.383165,247.531317 445.325146,242.719295 C445.268311,238.012655 441.31947,234.073286 436.616381,234.031844 C431.781862,233.988033 427.81526,237.992526 427.849598,242.881512 C427.883935,247.656828 431.736868,251.520417 436.495607,251.550018" id="Fill-602" fill="#797979"></path>
                    <path d="M233.3724,232.786212 C238.009181,232.786212 241.885795,228.876444 241.833696,224.255056 C241.781598,219.620644 237.824468,215.760606 233.224393,215.856515 C228.550906,215.953608 224.856637,219.836143 224.956098,224.545151 C225.052007,229.106152 228.811399,232.786212 233.3724,232.786212" id="Fill-609" fill="#797979"></path>
                    <path d="M270.227467,232.786212 C274.863063,232.837127 278.765727,228.98301 278.777567,224.343861 C278.788224,219.833774 275.066722,215.999787 270.540059,215.857699 C265.91275,215.71206 261.971013,219.504606 261.898785,224.173356 C261.825373,228.884733 265.54806,232.735297 270.227467,232.786212" id="Fill-610" fill="#797979"></path>
                    <path d="M307.170154,232.786212 C311.80575,232.837127 315.708414,228.98301 315.71907,224.343861 C315.730911,219.833774 312.009409,215.999787 307.482746,215.857699 C302.855437,215.71206 298.9137,219.504606 298.841472,224.173356 C298.76806,228.884733 302.490747,232.735297 307.170154,232.786212" id="Fill-611" fill="#797979"></path>
                    <path d="M344.014563,232.785028 C348.641872,232.892777 352.581241,229.091943 352.662941,224.442138 C352.742273,219.839695 348.859739,215.880197 344.239535,215.855331 C339.699847,215.83165 335.899013,219.525919 335.784159,224.075079 C335.664569,228.79356 339.332788,232.676094 344.014563,232.785028" id="Fill-612" fill="#797979"></path>
                    <path d="M381.049607,232.786212 C385.68402,232.840679 389.589051,228.98893 389.605628,224.348597 C389.619837,219.840879 385.899519,216.003339 381.372856,215.857699 C376.746731,215.708508 372.801442,219.499869 372.726846,224.167436 C372.651066,228.879997 376.371384,232.731745 381.049607,232.786212" id="Fill-613" fill="#797979"></path>
                    <path d="M418.265812,232.785028 C422.797212,232.682015 426.525818,228.889469 426.548315,224.359254 C426.570812,219.740234 422.65394,215.82573 418.042025,215.855331 C413.376826,215.884933 409.618618,219.73905 409.669533,224.440954 C409.720448,229.126281 413.598246,232.890409 418.265812,232.785028" id="Fill-614" fill="#797979"></path>
                    <path d="M455.077068,232.785028 C459.712665,232.757795 463.57507,228.819609 463.489818,224.20651 C463.404566,219.567361 459.426122,215.731005 454.831968,215.857699 C450.153745,215.986762 446.491446,219.879953 446.613404,224.593698 C446.732994,229.149962 450.516067,232.812261 455.077068,232.785028" id="Fill-615" fill="#797979"></path>
                    <path d="M491.848066,232.786212 C496.481295,232.857256 500.396983,229.022084 500.433689,224.378199 C500.469211,219.763915 496.561811,215.838754 491.946344,215.855331 C487.400735,215.871908 483.641343,219.58157 483.554907,224.137834 C483.466102,228.852763 487.168659,232.715168 491.848066,232.786212" id="Fill-616" fill="#797979"></path>
                    <path d="M399.661854,214.012933 C404.108001,213.980964 407.791613,210.247621 407.758459,205.807394 C407.725306,201.364799 403.980122,197.657506 399.558841,197.690659 C395.102037,197.723813 391.476444,201.421634 391.500125,205.909223 C391.52499,210.390892 395.206234,214.046087 399.661854,214.012933" id="Fill-639" fill="#797979"></path>
                    <path d="M547.378135,214.012933 C551.821914,214.012933 555.526839,210.308008 555.529207,205.861861 C555.531575,201.425186 551.811257,197.694212 547.385239,197.690659 C542.93554,197.685923 539.273241,201.371903 539.270873,205.854756 C539.268505,210.341162 542.916595,214.011749 547.378135,214.012933" id="Fill-642" fill="#797979"></path>
                    <path d="M215.023015,214.012933 C219.47153,213.933601 223.123173,210.162368 223.040288,205.732798 C222.957404,201.280731 219.180251,197.607775 214.77081,197.690659 C210.305718,197.775912 206.727487,201.492678 206.787874,205.983819 C206.847077,210.460752 210.570947,214.091081 215.023015,214.012933" id="Fill-646" fill="#797979"></path>
                    <path d="M251.744283,214.011749 C256.180957,214.069768 259.919036,210.413389 259.984159,205.954218 C260.048099,201.528199 256.375143,197.755783 251.9361,197.689475 C247.50061,197.623168 243.77674,201.286651 243.730561,205.761216 C243.683199,210.254725 247.276822,213.954914 251.744283,214.011749" id="Fill-647" fill="#797979"></path>
                    <path d="M288.779326,214.012933 C293.223105,214.012933 296.92803,210.308008 296.930399,205.861861 C296.932767,201.425186 293.212449,197.694212 288.786431,197.690659 C284.336731,197.685923 280.674432,201.371903 280.672064,205.854756 C280.669696,210.341162 284.317786,214.011749 288.779326,214.012933" id="Fill-648" fill="#797979"></path>
                    <path d="M325.680571,214.012933 C330.119614,214.037798 333.841116,210.351818 333.870717,205.902119 C333.901503,201.472549 330.201314,197.721445 325.769376,197.689475 C321.325597,197.657506 317.637248,201.332829 317.614751,205.813314 C317.593438,210.302088 321.217847,213.986884 325.680571,214.012933" id="Fill-649" fill="#797979"></path>
                    <path d="M362.793763,214.012933 C367.242278,213.933601 370.89392,210.161184 370.811036,205.732798 C370.728152,201.280731 366.950999,197.607775 362.541558,197.690659 C358.076466,197.775912 354.498235,201.492678 354.558622,205.983819 C354.617825,210.460752 358.341695,214.091081 362.793763,214.012933" id="Fill-650" fill="#797979"></path>
                    <path d="M436.424564,214.011749 C440.861238,214.088713 444.609974,210.451279 444.695226,205.987371 C444.780478,201.562537 441.126468,197.77828 436.682689,197.690659 C432.25075,197.603039 428.506751,201.254681 428.443996,205.729246 C428.381241,210.22394 431.955919,213.933601 436.424564,214.011749" id="Fill-651" fill="#797979"></path>
                    <path d="M473.503417,214.012933 C477.944828,214.007013 481.64857,210.293799 481.643833,205.851204 C481.639097,201.41453 477.914043,197.685923 473.489209,197.690659 C469.038325,197.694212 465.381947,201.381376 465.385499,205.865413 C465.387867,210.34945 469.044246,214.018853 473.503417,214.012933" id="Fill-652" fill="#797979"></path>
                    <path d="M510.383349,214.011749 C514.822392,214.044903 518.547446,210.366027 518.584152,205.913959 C518.620858,201.484389 514.926589,197.728549 510.494651,197.689475 C506.052056,197.650401 502.355419,201.323357 502.328186,205.802658 C502.300952,210.293799 505.918257,213.979779 510.383349,214.011749" id="Fill-653" fill="#797979"></path>
                    <path d="M270.399155,195.22663 C274.652301,195.174531 278.114493,191.643663 278.106205,187.36802 C278.099101,183.099482 274.604938,179.569798 270.361265,179.540196 C266.135354,179.511779 262.571332,183.016598 262.507392,187.265007 C262.441085,191.629454 266.060758,195.281096 270.399155,195.22663" id="Fill-655" fill="#797979"></path>
                    <path d="M233.32859,195.227814 C237.56871,195.257415 241.098395,191.775093 241.164702,187.497083 C241.229825,183.235649 237.806707,179.659786 233.547641,179.54138 C229.344226,179.425342 225.693768,182.898192 225.564705,187.135944 C225.432091,191.499207 228.979536,195.197028 233.32859,195.227814" id="Fill-656" fill="#797979"></path>
                    <path d="M491.912006,195.227814 C496.150942,195.266888 499.688915,191.790486 499.763511,187.512476 C499.838107,183.251042 496.420908,179.670443 492.160658,179.54138 C487.960796,179.41587 484.300865,182.883983 484.163514,187.120552 C484.022611,191.483814 487.562952,195.187556 491.912006,195.227814" id="Fill-657" fill="#797979"></path>
                    <path d="M455.145744,195.22663 C459.404809,195.152034 462.848057,191.611693 462.81964,187.334866 C462.792406,183.065144 459.281667,179.546117 455.041546,179.540196 C450.698413,179.534276 447.120182,183.213152 447.219643,187.581151 C447.31792,191.822456 450.923384,195.301225 455.145744,195.22663" id="Fill-658" fill="#797979"></path>
                    <path d="M196.535095,195.22663 C200.791792,195.160322 204.242144,191.623534 204.220831,187.347891 C204.200702,183.078169 200.695883,179.555589 196.455763,179.540196 C192.225114,179.525988 188.675301,183.035543 188.622018,187.285136 C188.566368,191.648399 192.200249,195.294121 196.535095,195.22663" id="Fill-659" fill="#797979"></path>
                    <path d="M418.191216,195.22663 C422.449098,195.160322 425.898266,191.622349 425.876953,187.346707 C425.856824,183.078169 422.352005,179.554405 418.1107,179.540196 C413.76875,179.525988 410.183415,183.201311 410.276956,187.56931 C410.369313,191.810615 413.968857,195.292937 418.191216,195.22663" id="Fill-660" fill="#797979"></path>
                    <path d="M381.086313,195.227814 C385.32525,195.265704 388.862038,191.788118 388.93545,187.508923 C389.007678,183.248674 385.590479,179.668075 381.330229,179.54138 C377.129183,179.417054 373.47162,182.886351 373.335453,187.12292 C373.195734,191.486183 376.737259,195.18874 381.086313,195.227814" id="Fill-661" fill="#797979"></path>
                    <path d="M344.317683,195.22663 C348.576749,195.152034 352.019996,191.611693 351.991579,187.334866 C351.964346,183.065144 348.453606,179.546117 344.213486,179.540196 C339.870352,179.534276 336.292121,183.213152 336.391582,187.581151 C336.489859,191.822456 340.095323,195.301225 344.317683,195.22663" id="Fill-662" fill="#797979"></path>
                    <path d="M307.199755,195.227814 C311.438692,195.266888 314.97548,191.789302 315.050076,187.510107 C315.123488,183.249858 311.706289,179.669259 307.44604,179.54138 C303.246177,179.41587 299.586246,182.885167 299.450079,187.12292 C299.309176,191.484998 302.850701,195.18874 307.199755,195.227814" id="Fill-663" fill="#797979"></path>
                    <path d="M565.99867,195.22663 C570.257735,195.136641 573.690327,191.58446 573.647701,187.311185 C573.606259,183.039095 570.082495,179.52954 565.844742,179.540196 C561.500424,179.550853 557.935218,183.238017 558.048888,187.606016 C558.159006,191.844953 561.779862,195.315434 565.99867,195.22663" id="Fill-679" fill="#797979"></path>
                    <path d="M528.997964,195.22663 C533.251109,195.174531 536.713302,191.643663 536.705014,187.36802 C536.696725,183.099482 533.203747,179.569798 528.960074,179.540196 C524.734162,179.511779 521.17014,183.016598 521.106201,187.265007 C521.039894,191.629454 524.659566,195.281096 528.997964,195.22663" id="Fill-680" fill="#797979"></path>
                    <path d="M178.066119,176.407172 C182.155864,176.326656 185.385981,172.992342 185.367036,168.872996 C185.346907,164.751281 182.07298,161.459593 177.976131,161.443016 C173.9373,161.426439 170.539047,164.77141 170.482212,168.819713 C170.425377,172.95682 173.955061,176.488873 178.066119,176.407172" id="Fill-685" fill="#797979"></path>
                    <path d="M251.958597,176.407172 C256.049526,176.32192 259.274907,172.986422 259.251226,168.865891 C259.228729,164.745361 255.950065,161.454857 251.855584,161.443016 C247.814386,161.431175 244.419684,164.778514 244.367586,168.826817 C244.314303,172.965109 247.846355,176.492425 251.958597,176.407172" id="Fill-686" fill="#797979"></path>
                    <path d="M288.906021,176.405988 C292.998134,176.317184 296.219962,172.981685 296.193913,168.859971 C296.169048,164.73944 292.886832,161.451304 288.792351,161.443016 C284.751152,161.434728 281.360003,164.783251 281.310273,168.832737 C281.260542,172.971029 284.794963,176.495977 288.906021,176.405988" id="Fill-687" fill="#797979"></path>
                    <path d="M214.838301,176.405988 C218.906733,176.442694 222.245784,173.149822 222.304987,169.0435 C222.36419,164.899289 219.208669,161.575631 215.090506,161.445384 C210.958135,161.315137 207.415426,164.776146 207.424899,168.933383 C207.434371,172.96274 210.812496,176.369282 214.838301,176.405988" id="Fill-696" fill="#797979"></path>
                    <path d="M584.277012,176.405988 C588.347811,176.434406 591.678574,173.139165 591.731856,169.030476 C591.786323,164.887448 588.621329,161.566158 584.504351,161.445384 C580.37198,161.322242 576.835191,164.790355 576.851768,168.946407 C576.868345,172.974581 580.254758,176.377571 584.277012,176.405988" id="Fill-697" fill="#797979"></path>
                    <path d="M547.340245,176.405988 C551.411045,176.430854 554.739439,173.134429 554.789169,169.025739 C554.841268,164.882712 551.672722,161.562606 547.556928,161.4442 C543.423373,161.325794 539.888952,164.795091 539.909081,168.951143 C539.928026,172.979317 543.319176,176.381123 547.340245,176.405988" id="Fill-698" fill="#797979"></path>
                    <path d="M510.447288,176.405988 C514.525193,176.396516 517.820433,173.088251 517.848851,168.974825 C517.877268,164.84127 514.672016,161.5259 510.563326,161.440648 C506.427403,161.355396 502.916664,164.849558 502.966394,169.002058 C503.014941,173.029048 506.436876,176.415461 510.447288,176.405988" id="Fill-699" fill="#797979"></path>
                    <path d="M473.531835,176.407172 C477.728145,176.376387 481.021017,172.917746 480.900243,168.663417 C480.783021,164.560647 477.383584,161.326978 473.309232,161.445384 C469.24672,161.564974 465.960952,164.984541 466.024892,169.029291 C466.088831,173.058649 469.524974,176.43559 473.531835,176.407172" id="Fill-700" fill="#797979"></path>
                    <path d="M436.645983,176.407172 C440.73336,176.339681 443.976501,173.008919 443.965845,168.89194 C443.955188,164.770226 440.691918,161.471433 436.595068,161.441832 C432.557422,161.413414 429.149696,164.751281 429.082205,168.800768 C429.012345,172.935507 432.533741,176.475848 436.645983,176.407172" id="Fill-701" fill="#797979"></path>
                    <path d="M325.919751,176.402436 C330.024889,176.263901 333.192251,172.921298 333.134232,168.790111 C333.075029,164.670765 329.756107,161.40631 325.663994,161.4442 C321.615691,161.480906 318.261248,164.857846 318.25296,168.903781 C318.243487,173.042072 321.820534,176.540971 325.919751,176.402436" id="Fill-702" fill="#797979"></path>
                    <path d="M399.582522,176.405988 C403.65569,176.422565 406.974611,173.122589 407.019606,169.012715 C407.0646,164.870871 403.887766,161.553134 399.773156,161.443016 C395.638416,161.332898 392.1111,164.808116 392.138334,168.964168 C392.164383,172.992342 395.563821,176.390595 399.582522,176.405988" id="Fill-704" fill="#797979"></path>
                    <path d="M362.717983,176.407172 C366.801807,176.368098 370.070998,173.049177 370.079287,168.933383 C370.087575,164.806932 366.852722,161.499851 362.751137,161.441832 C358.719411,161.384997 355.289187,164.708655 355.196831,168.759326 C355.10329,172.890513 358.601005,176.446246 362.717983,176.407172" id="Fill-705" fill="#797979"></path>
                    <path d="M639.972848,157.477597 C643.881432,157.353271 646.840399,154.217879 646.765803,150.279694 C646.691208,146.369926 643.577128,143.373069 639.642496,143.4228 C635.769434,143.47253 632.618649,146.641076 632.63641,150.466775 C632.654171,154.403776 636.002694,157.604292 639.972848,157.477597" id="Fill-707" fill="#797979"></path>
                    <path d="M602.903467,157.479966 C606.810867,157.427867 609.839693,154.330365 609.823116,150.406388 C609.805355,146.482412 606.751664,143.43464 602.826503,143.423984 C598.943969,143.414511 595.764766,146.496621 595.693723,150.340081 C595.621495,154.256953 598.92976,157.533248 602.903467,157.479966" id="Fill-708" fill="#797979"></path>
                    <path d="M566.075634,157.477597 C569.984218,157.359191 572.950289,154.226167 572.880429,150.29035 C572.81057,146.379399 569.702411,143.378989 565.768962,143.423984 C561.894716,143.467794 558.740379,146.628051 558.749852,150.456119 C558.760508,154.391936 562.105479,157.598372 566.075634,157.477597" id="Fill-716" fill="#797979"></path>
                    <path d="M528.936393,157.48115 C532.844977,157.474045 535.917613,154.403776 535.937742,150.486904 C535.956687,146.55464 532.942069,143.474898 529.022829,143.425168 C525.026625,143.374253 521.738489,146.617395 521.807165,150.541371 C521.87584,154.372991 525.076356,157.489438 528.936393,157.48115" id="Fill-717" fill="#797979"></path>
                    <path d="M491.829122,157.482334 C495.730601,157.565218 498.901515,154.543496 498.995056,150.652673 C499.08978,146.708567 496.145022,143.555414 492.244727,143.426352 C488.241418,143.293737 484.913024,146.427945 484.865662,150.376787 C484.819483,154.187093 487.966716,157.399449 491.829122,157.482334" id="Fill-718" fill="#797979"></path>
                    <path d="M454.95511,157.483518 C458.857773,157.527328 461.989613,154.483109 462.052369,150.583997 C462.116308,146.644628 459.143132,143.523445 455.233364,143.426352 C451.232424,143.325707 447.920607,146.506093 447.922975,150.445462 C447.924159,154.268794 451.092705,157.439708 454.95511,157.483518" id="Fill-719" fill="#797979"></path>
                    <path d="M418.173455,157.479966 C422.082039,157.437339 425.119154,154.345757 425.109682,150.421781 C425.099025,146.496621 422.053622,143.442929 418.129645,143.423984 C414.139361,143.406223 410.863066,146.695543 410.979104,150.606494 C411.093958,154.451139 414.308682,157.523776 418.173455,157.479966" id="Fill-720" fill="#797979"></path>
                    <path d="M381.258002,157.479966 C385.165401,157.420763 388.189492,154.319708 388.166995,150.394548 C388.144498,146.472939 385.084885,143.429904 381.159725,143.423984 C377.27719,143.419247 374.100356,146.508461 374.037601,150.350737 C373.972478,154.268794 377.285479,157.540353 381.258002,157.479966" id="Fill-721" fill="#797979"></path>
                    <path d="M344.1827,157.482334 C348.087732,157.496542 351.186418,154.435746 351.224308,150.528347 C351.262198,146.590161 348.267709,143.496211 344.349653,143.425168 C340.349896,143.35294 337.053472,146.567664 337.09373,150.501113 C337.133988,154.325628 340.325031,157.468125 344.1827,157.482334" id="Fill-722" fill="#797979"></path>
                    <path d="M307.366708,157.479966 C311.274107,157.424315 314.300566,154.325628 314.281621,150.400468 C314.261492,146.477676 311.205432,143.432272 307.280271,143.423984 C303.397737,143.416879 300.219719,146.502541 300.152227,150.344817 C300.083552,154.262873 303.393001,157.5368 307.366708,157.479966" id="Fill-723" fill="#797979"></path>
                    <path d="M270.306799,157.482334 C274.213014,157.490622 277.30578,154.427458 277.338934,150.51769 C277.372088,146.581873 274.371678,143.490291 270.454806,143.425168 C266.45505,143.35886 263.160994,146.580689 263.20954,150.510586 C263.255719,154.337469 266.44913,157.474045 270.306799,157.482334" id="Fill-724" fill="#797979"></path>
                    <path d="M233.603292,157.477597 C237.511876,157.353271 240.470843,154.217879 240.396247,150.279694 C240.321651,146.369926 237.207572,143.373069 233.272939,143.4228 C229.399877,143.47253 226.249092,146.639892 226.266853,150.466775 C226.284614,154.403776 229.633137,157.604292 233.603292,157.477597" id="Fill-725" fill="#797979"></path>
                    <path d="M196.445106,157.482334 C200.35369,157.478782 203.429879,154.410881 203.45356,150.495193 C203.476057,146.561744 200.464991,143.479634 196.545751,143.425168 C192.549547,143.370701 189.259043,146.609106 189.322982,150.534267 C189.385737,154.364702 192.585069,157.484702 196.445106,157.482334" id="Fill-726" fill="#797979"></path>
                    <path d="M159.568726,157.479966 C163.476126,157.440892 166.517977,154.351678 166.510873,150.428885 C166.503769,146.501357 163.461917,143.446481 159.536757,143.425168 C155.546473,143.402671 152.268994,146.688438 152.380295,150.600574 C152.490413,154.444035 155.703953,157.520224 159.568726,157.479966" id="Fill-727" fill="#797979"></path>
                    <path d="M658.165938,138.591833 C661.908753,138.611962 664.857063,135.725222 664.879561,132.021481 C664.902058,128.316556 661.982165,125.368245 658.266583,125.342196 C654.543897,125.316147 651.576641,128.221831 651.548224,131.920836 C651.518622,135.624577 654.443251,138.571704 658.165938,138.591833" id="Fill-737" fill="#797979"></path>
                    <path d="M621.188913,138.590649 C624.93528,138.626171 627.895431,135.758376 627.936874,132.055819 C627.977132,128.350894 625.069079,125.382454 621.358234,125.342196 C617.629627,125.300754 614.656451,128.183941 614.607905,131.886498 C614.558174,135.591424 617.468595,138.556311 621.188913,138.590649" id="Fill-738" fill="#797979"></path>
                    <path d="M584.428571,138.593017 C588.147705,138.549207 591.047469,135.581951 590.994187,131.873474 C590.93972,128.172101 587.97128,125.304306 584.234385,125.34338 C580.525908,125.382454 577.611935,128.366287 577.667586,132.06766 C577.722053,135.778505 580.684572,138.638011 584.428571,138.593017" id="Fill-739" fill="#797979"></path>
                    <path d="M547.39116,138.591833 C551.125686,138.589465 554.05742,135.674308 554.052684,131.968198 C554.047948,128.265641 551.110293,125.345748 547.386423,125.342196 C543.669657,125.339828 540.718979,128.275114 540.720163,131.972935 C540.720163,135.675492 543.663737,138.595385 547.39116,138.591833" id="Fill-740" fill="#797979"></path>
                    <path d="M510.16193,138.588281 C513.926058,138.713791 516.959621,135.947826 517.106445,132.254741 C517.252084,128.552184 514.415075,125.478363 510.730279,125.3493 C506.974439,125.216686 503.956269,127.974362 503.792869,131.687576 C503.628284,135.391317 506.465293,138.465138 510.16193,138.588281" id="Fill-741" fill="#797979"></path>
                    <path d="M473.416981,138.590649 C477.163348,138.627355 480.124684,135.760744 480.166126,132.057003 C480.207568,128.352078 477.300699,125.383638 473.589854,125.342196 C469.861247,125.300754 466.886888,128.182757 466.837157,131.88413 C466.786242,135.590239 469.695479,138.555127 473.416981,138.590649" id="Fill-742" fill="#797979"></path>
                    <path d="M436.451797,138.590649 C440.199348,138.638011 443.168972,135.782057 443.223439,132.0795 C443.276722,128.373391 440.378142,125.394295 436.669664,125.342196 C432.93869,125.290097 429.958409,128.157892 429.895654,131.861633 C429.832899,135.567742 432.732663,138.54447 436.451797,138.590649" id="Fill-743" fill="#797979"></path>
                    <path d="M399.744738,138.594201 C403.459136,138.536182 406.350611,135.551166 406.279568,131.843872 C406.209708,128.143683 403.229428,125.291281 399.490165,125.34338 C395.786424,125.396663 392.883108,128.395888 392.955335,132.098445 C393.027563,135.809291 395.998371,138.651036 399.744738,138.594201" id="Fill-744" fill="#797979"></path>
                    <path d="M325.783584,138.593017 C329.511007,138.569336 332.427348,135.626945 332.396562,131.919652 C332.365776,128.217095 329.411546,125.324435 325.680571,125.34338 C321.969725,125.362325 319.036808,128.322476 319.066409,132.021481 C319.094827,135.731143 322.045505,138.616698 325.783584,138.593017" id="Fill-746" fill="#797979"></path>
                    <path d="M288.831425,138.593017 C292.560031,138.572888 295.47874,135.636418 295.453875,131.929124 C295.427826,128.226567 292.477147,125.327987 288.747357,125.34338 C285.035327,125.357589 282.100041,128.313004 282.122538,132.012009 C282.146219,135.720486 285.095714,138.613146 288.831425,138.593017" id="Fill-747" fill="#797979"></path>
                    <path d="M251.745467,138.590649 C255.493018,138.634459 258.460274,135.774953 258.510004,132.072396 C258.559735,128.366287 255.657602,125.390743 251.947941,125.342196 C248.219334,125.29365 245.240238,128.16618 245.182219,131.869921 C245.123016,135.574847 248.026333,138.548023 251.745467,138.590649" id="Fill-748" fill="#797979"></path>
                    <path d="M214.87856,138.591833 C218.617823,138.601305 221.557845,135.702725 221.568501,131.996616 C221.577974,128.292875 218.649792,125.357589 214.929474,125.342196 C211.212708,125.327987 208.249005,128.250249 208.234796,131.945701 C208.219403,135.644706 211.155873,138.58236 214.87856,138.591833" id="Fill-749" fill="#797979"></path>
                    <path d="M178.093353,138.593017 C181.80775,138.533814 184.696858,135.545245 184.623446,131.839136 C184.550034,128.138947 181.56857,125.288913 177.829307,125.34338 C174.125566,125.399031 171.224618,128.401808 171.299214,132.103181 C171.374993,135.815211 174.345801,138.653404 178.093353,138.593017" id="Fill-750" fill="#797979"></path>
                    <path d="M362.552214,138.590649 C366.302134,138.643931 369.276494,135.795082 369.336881,132.093709 C369.398452,128.386416 366.505792,125.400215 362.797315,125.342196 C359.065156,125.284177 356.082508,128.143683 356.011464,131.848608 C355.940421,135.553534 358.835449,138.537366 362.552214,138.590649" id="Fill-754" fill="#797979"></path>
                    <path d="M454.859201,119.727381 C458.32021,119.81737 461.275625,116.973257 461.296938,113.531193 C461.318251,110.110442 458.355732,107.194101 454.920772,107.255672 C451.543832,107.316059 448.852462,110.064264 448.838254,113.468438 C448.822861,116.88682 451.471604,119.638577 454.859201,119.727381" id="Fill-758" fill="#797979"></path>
                    <path d="M159.393485,119.728565 C162.85923,119.777112 165.786228,116.891556 165.755442,113.455413 C165.725841,110.131755 162.919618,107.311323 159.587671,107.256856 C156.100613,107.198837 153.275445,110.022822 153.296758,113.545401 C153.315703,116.957864 155.999968,119.680019 159.393485,119.728565" id="Fill-762" fill="#797979"></path>
                    <path d="M196.403664,119.727381 C199.870593,119.74159 202.772725,116.818145 202.698129,113.387921 C202.625902,110.061896 199.791261,107.274617 196.462867,107.255672 C192.976993,107.236727 190.187346,110.085577 190.239445,113.611709 C190.287991,117.014699 193.008962,119.714357 196.403664,119.727381" id="Fill-763" fill="#797979"></path>
                    <path d="M233.244522,119.728565 C236.707899,119.796057 239.647921,116.929446 239.640816,113.489751 C239.634896,110.174381 236.835777,107.331452 233.507383,107.256856 C230.016773,107.179892 227.177396,109.9873 227.182132,113.511064 C227.185684,116.922342 229.856925,119.662258 233.244522,119.728565" id="Fill-764" fill="#797979"></path>
                    <path d="M270.242859,119.728565 C273.708604,119.766455 276.628498,116.867875 276.583503,113.4341 C276.539693,110.108074 273.726365,107.299482 270.394419,107.256856 C266.907361,107.210678 264.094033,110.041767 264.124819,113.565531 C264.153236,116.977993 266.846974,119.690675 270.242859,119.728565" id="Fill-765" fill="#797979"></path>
                    <path d="M344.044165,119.727381 C347.506358,119.81145 350.455852,116.959048 350.468877,113.518168 C350.481902,110.095049 347.514646,107.186997 344.079687,107.255672 C340.700378,107.323164 338.018481,110.07492 338.010193,113.482646 C338.00072,116.898661 340.656568,119.646865 344.044165,119.727381" id="Fill-766" fill="#797979"></path>
                    <path d="M381.209455,119.727381 C384.559162,119.693044 387.36065,116.916422 387.411564,113.578555 C387.464847,110.164909 384.51772,107.221334 381.083945,107.255672 C377.708188,107.29001 374.989586,110.024006 374.95288,113.421075 C374.91499,116.95668 377.698716,119.762903 381.209455,119.727381" id="Fill-767" fill="#797979"></path>
                    <path d="M418.085835,119.727381 C421.55158,119.728565 424.446608,116.788543 424.354251,113.361872 C424.264262,110.034662 421.418965,107.260408 418.092939,107.255672 C414.607065,107.25212 411.831627,110.109258 411.895567,113.637758 C411.955954,117.03838 414.689949,119.727381 418.085835,119.727381" id="Fill-768" fill="#797979"></path>
                    <path d="M307.155945,119.728565 C310.62169,119.783032 313.551055,116.901029 313.52619,113.463701 C313.502509,110.142412 310.69747,107.316059 307.366708,107.256856 C303.879649,107.194101 301.050929,110.013349 301.067506,113.535929 C301.082899,116.949575 303.763612,119.676467 307.155945,119.728565" id="Fill-769" fill="#797979"></path>
                    <path d="M492.019755,119.727381 C495.370646,119.702516 498.17687,116.936551 498.239625,113.596316 C498.304748,110.186222 495.363542,107.230807 491.929767,107.255672 C488.555194,107.279353 485.824751,110.008613 485.780941,113.403314 C485.734762,116.940103 488.5102,119.753431 492.019755,119.727381" id="Fill-770" fill="#797979"></path>
                    <path d="M528.907975,119.727381 C532.374905,119.730933 535.271116,116.794463 535.182312,113.367792 C535.095875,110.040582 532.252946,107.262777 528.92692,107.255672 C525.439862,107.248568 522.662056,110.104522 522.722443,113.633022 C522.781647,117.03246 525.514458,119.725013 528.907975,119.727381" id="Fill-771" fill="#797979"></path>
                    <path d="M565.905129,119.727381 C569.25602,119.702516 572.062244,116.936551 572.124999,113.596316 C572.190122,110.186222 569.248916,107.230807 565.815141,107.255672 C562.440568,107.279353 559.710125,110.008613 559.666314,113.403314 C559.618952,116.940103 562.395574,119.753431 565.905129,119.727381" id="Fill-772" fill="#797979"></path>
                    <path d="M602.677311,119.728565 C606.141872,119.793689 609.079526,116.922342 609.067686,113.48383 C609.057029,110.166093 606.25791,107.326716 602.928332,107.256856 C599.438906,107.183445 596.601897,109.99322 596.609001,113.516984 C596.614922,116.929446 599.28853,119.66581 602.677311,119.728565" id="Fill-773" fill="#797979"></path>
                    <path d="M639.672097,119.728565 C643.137842,119.765271 646.056551,116.866691 646.010373,113.431732 C645.965378,110.105706 643.150867,107.298298 639.818921,107.256856 C636.443164,107.21423 633.649965,109.900863 633.551688,113.283724 C633.448675,116.826433 636.169646,119.691859 639.672097,119.728565" id="Fill-774" fill="#797979"></path>
                    <path d="M676.593471,119.728565 C680.059216,119.775928 682.985029,116.889188 682.95306,113.453045 C682.922274,110.129387 680.114867,107.310139 676.782921,107.256856 C673.407164,107.20239 670.600941,109.881918 670.494375,113.263595 C670.38189,116.806304 673.093388,119.680019 676.593471,119.728565" id="Fill-775" fill="#797979"></path>
                    <path d="M695.088496,100.804911 C698.225072,100.847537 700.824085,98.2686532 700.851318,95.0894508 C700.879735,91.883015 698.373079,89.3005791 695.203349,89.2697936 C692.080982,89.239008 689.419214,91.8498613 689.38606,94.9745969 C689.352907,98.088676 691.96968,100.763469 695.088496,100.804911" id="Fill-787" fill="#797979"></path>
                    <path d="M658.145809,100.804911 C661.282385,100.847537 663.881398,98.2686532 663.908631,95.0894508 C663.937048,91.883015 661.430392,89.3005791 658.260662,89.2697936 C655.138295,89.239008 652.476527,91.8498613 652.443373,94.9745969 C652.41022,98.088676 655.026993,100.763469 658.145809,100.804911" id="Fill-788" fill="#797979"></path>
                    <path d="M621.175888,100.804911 C624.308912,100.864114 626.925686,98.2935185 626.965944,95.1166842 C627.006202,91.9138006 624.510203,89.317156 621.345209,89.2686095 C618.227578,89.2212471 615.551601,91.8214439 615.50187,94.9473636 C615.45214,98.0614426 618.052337,100.744524 621.175888,100.804911" id="Fill-789" fill="#797979"></path>
                    <path d="M584.419099,100.808463 C587.573436,100.745708 590.071804,98.1253819 590.023257,94.9307867 C589.974711,91.7361915 587.376882,89.2046702 584.216624,89.2733457 C581.070576,89.3432053 578.501165,92.0049733 578.560368,95.133261 C578.619571,98.2544445 581.321597,100.871218 584.419099,100.808463" id="Fill-790" fill="#797979"></path>
                    <path d="M547.466939,100.808463 C550.618908,100.751628 553.12438,98.1324862 553.081754,94.9414433 C553.037944,91.745664 550.444851,89.2105905 547.28341,89.2733457 C544.138545,89.3361009 541.564398,91.9943167 541.617681,95.1226045 C541.670963,98.244972 544.365885,100.864114 547.466939,100.808463" id="Fill-791" fill="#797979"></path>
                    <path d="M510.43308,100.806095 C513.572024,100.810831 516.140251,98.2130024 516.140251,95.0326159 C516.141435,91.8344686 513.595705,89.2650573 510.431896,89.2709776 C507.303608,89.2768979 504.672626,91.9078803 504.672626,95.0326159 C504.672626,98.146695 507.321369,100.801359 510.43308,100.806095" id="Fill-792" fill="#797979"></path>
                    <path d="M473.375539,100.803727 C476.508563,100.883059 479.139545,98.324304 479.192828,95.1462857 C479.247295,91.9386659 476.772608,89.3349169 473.604063,89.2674254 C470.484063,89.2023021 467.799798,91.7859221 467.732307,94.917762 C467.665999,98.029473 470.249619,100.724395 473.375539,100.803727" id="Fill-793" fill="#797979"></path>
                    <path d="M399.657118,100.807279 C402.803166,100.776493 405.337056,98.166824 405.31219,94.9805172 C405.287325,91.7882902 402.71081,89.2342717 399.551736,89.2721617 C396.412792,89.3100516 393.814963,91.9552427 393.845749,95.0835305 C393.876534,98.2035299 396.550143,100.838064 399.657118,100.807279" id="Fill-794" fill="#797979"></path>
                    <path d="M362.583,100.804911 C365.716024,100.860562 368.329245,98.2887822 368.367135,95.111948 C368.405025,91.9066962 365.907842,89.3136038 362.74048,89.2686095 C359.622849,89.2247993 356.94924,91.8285483 356.903062,94.9532839 C356.856883,98.0673629 359.460632,100.74926 362.583,100.804911" id="Fill-795" fill="#797979"></path>
                    <path d="M325.559797,100.802543 C328.684532,100.91266 331.3463,98.3645621 331.420896,95.1924641 C331.496676,91.9765558 329.052775,89.3645184 325.878309,89.2697936 C322.761862,89.1762528 320.057468,91.7385597 319.962743,94.8727677 C319.869202,97.9821106 322.429141,100.693609 325.559797,100.802543" id="Fill-796" fill="#797979"></path>
                    <path d="M288.834977,100.807279 C291.98221,100.772941 294.511363,98.1609037 294.48413,94.9745969 C294.456896,91.7823699 291.876828,89.2307196 288.717755,89.2721617 C285.577627,89.3136038 282.984534,91.961163 283.017688,95.0894508 C283.052026,98.2106342 285.729186,100.841617 288.834977,100.807279" id="Fill-797" fill="#797979"></path>
                    <path d="M251.879265,100.807279 C255.02413,100.78123 257.56394,98.1715602 257.542627,94.9876216 C257.521314,91.7953946 254.945982,89.239008 251.788093,89.2721617 C248.650332,89.3053154 246.048952,91.9493224 246.075001,95.0776102 C246.10105,98.1964255 248.772291,100.833328 251.879265,100.807279" id="Fill-798" fill="#797979"></path>
                    <path d="M214.897504,100.807279 C218.037633,100.807279 220.602308,98.2070821 220.59994,95.0266956 C220.596388,91.8285483 218.048289,89.2615051 214.88448,89.2709776 C211.756192,89.2804501 209.127578,91.9149847 209.13113,95.0385362 C209.134682,98.1526153 211.786978,100.806095 214.897504,100.807279" id="Fill-799" fill="#797979"></path>
                    <path d="M177.880222,100.804911 C181.015614,100.854641 183.621731,98.2793097 183.653701,95.1012914 C183.686854,91.8960397 181.18375,89.3064994 178.016389,89.2686095 C174.896389,89.2319036 172.228701,91.8392048 172.189627,94.9639404 C172.149369,98.0780195 174.759038,100.756364 177.880222,100.804911" id="Fill-800" fill="#797979"></path>
                    <path d="M140.935167,100.804911 C144.069375,100.855825 146.67786,98.2804938 146.711014,95.1024755 C146.745351,91.8984078 144.243432,89.3076835 141.07607,89.2686095 C137.95607,89.2307196 135.287198,91.8368367 135.24694,94.9615723 C135.206682,98.0756513 137.813983,100.75518 140.935167,100.804911" id="Fill-801" fill="#797979"></path>
                    <path d="M436.462454,100.804911 C439.595478,100.864114 442.212251,98.2935185 442.252509,95.1166842 C442.292767,91.9138006 439.796768,89.317156 436.631774,89.2686095 C433.514143,89.2212471 430.838166,91.8214439 430.788436,94.9473636 C430.739889,98.0614426 433.338902,100.745708 436.462454,100.804911" id="Fill-805" fill="#797979"></path>
                    <path d="M565.649372,81.7131196 C568.572817,81.8125807 570.989485,79.5770745 571.070001,76.6986234 C571.150517,73.8272768 568.82739,71.423634 565.934731,71.3857441 C562.99234,71.3478541 560.701183,73.6094097 560.699999,76.5553521 C560.698815,79.4030176 562.824204,81.6172107 565.649372,81.7131196" id="Fill-818" fill="#797979"></path>
                    <path d="M750.450427,81.7166718 C753.371505,81.7735067 755.753834,79.4930062 755.783436,76.6098189 C755.813037,73.7349201 753.457941,71.3798238 750.559361,71.38456 C747.735377,71.3904803 745.509343,73.5431023 745.413434,76.3611662 C745.313973,79.3248696 747.509221,81.6598369 750.450427,81.7166718" id="Fill-820" fill="#797979"></path>
                    <path d="M344.304658,81.7131196 C347.207975,81.6657572 349.51334,79.2621144 349.412695,76.3872155 C349.313234,73.5087645 346.875254,71.2732583 343.966017,71.3881122 C341.15861,71.5005979 339.030853,73.7455766 339.043878,76.5837696 C339.058086,79.5415527 341.336219,81.7628501 344.304658,81.7131196" id="Fill-822" fill="#797979"></path>
                    <path d="M528.783649,81.7178558 C531.704726,81.779427 534.091792,79.5024787 534.127314,76.6204755 C534.162836,73.7455766 531.812476,71.38456 528.913896,71.3857441 C526.088727,71.3857441 523.857957,73.5336298 523.757312,76.3493256 C523.651931,79.314213 525.843627,81.6551006 528.783649,81.7178558" id="Fill-826" fill="#797979"></path>
                    <path d="M639.556059,81.7143036 C642.47832,81.8031082 644.886699,79.5569454 644.955375,76.6773104 C645.022866,73.8035956 642.693819,71.4129775 639.798791,71.3857441 C636.970071,71.3596947 634.713252,73.4838992 634.586557,76.2936748 C634.451574,79.2573781 636.621957,81.624315 639.556059,81.7143036" id="Fill-827" fill="#797979"></path>
                    <path d="M713.472219,81.7154877 C716.393296,81.7900835 718.791018,79.5261599 718.840749,76.6453407 C718.890479,73.7704419 716.550776,71.3975847 713.652196,71.3857441 C710.713358,71.3727194 708.444698,73.6603243 708.470747,76.6086349 C708.495612,79.4527481 710.64113,81.6444441 713.472219,81.7154877" id="Fill-828" fill="#797979"></path>
                    <path d="M676.516507,81.7154877 C679.438768,81.7960038 681.840043,79.5391845 681.898062,76.6595495 C681.954897,73.7846506 679.619929,71.404689 676.723718,71.3857441 C673.894997,71.3679832 671.64765,73.499292 671.529244,76.3114357 C671.403734,79.2763231 673.580037,81.6337875 676.516507,81.7154877" id="Fill-829" fill="#797979"></path>
                    <path d="M602.738883,81.7166718 C605.654039,81.7450892 608.01624,79.4326191 608.012688,76.5517999 C608.007952,73.6769011 605.631542,71.3514063 602.730594,71.38456 C599.907794,71.4165297 597.710178,73.5904647 597.642686,76.4191852 C597.572827,79.3840726 599.78702,81.6858862 602.738883,81.7166718" id="Fill-830" fill="#797979"></path>
                    <path d="M491.902533,81.7166718 C494.820058,81.7498255 497.183443,79.4420916 497.184627,76.5600884 C497.184627,73.6851895 494.81177,71.3549585 491.910822,71.38456 C488.979088,71.4141615 486.74595,73.7408404 486.814625,76.6950713 C486.880933,79.5320802 489.060788,81.6847021 491.902533,81.7166718" id="Fill-831" fill="#797979"></path>
                    <path d="M454.933797,81.7166718 C457.85369,81.7616661 460.225363,79.469325 460.24194,76.5861377 C460.257333,73.7112389 457.893948,71.3679832 454.994184,71.38456 C452.060082,71.4011369 449.816288,73.7159751 449.871938,76.6690219 C449.925221,79.508399 452.095604,81.6728615 454.933797,81.7166718" id="Fill-832" fill="#797979"></path>
                    <path d="M418.038472,81.7154877 C420.953629,81.7391689 423.311094,79.4172263 423.299253,76.5375912 C423.286229,73.6615083 420.905083,71.344302 418.002951,71.38456 C415.073585,71.4248181 412.848735,73.7633375 412.929251,76.7163844 C413.005031,79.5510251 415.195543,81.6941746 418.038472,81.7154877" id="Fill-833" fill="#797979"></path>
                    <path d="M381.07092,81.7166718 C383.988445,81.7510095 386.353014,79.4444597 386.356566,76.5636406 C386.358934,73.6875576 383.986077,71.3561426 381.085129,71.38456 C378.153395,71.4117934 375.919073,73.7372882 375.986565,76.6915191 C376.050504,79.528528 378.230359,81.6835181 381.07092,81.7166718" id="Fill-834" fill="#797979"></path>
                    <path d="M307.189099,81.7166718 C310.106624,81.7498255 312.470008,79.4420916 312.471192,76.5600884 C312.471192,73.6851895 310.098335,71.3549585 307.197387,71.38456 C304.265653,71.4141615 302.032515,73.7408404 302.101191,76.6950713 C302.167498,79.5320802 304.347353,81.6847021 307.189099,81.7166718" id="Fill-835" fill="#797979"></path>
                    <path d="M270.161159,81.7154877 C273.082236,81.7900835 275.478775,79.5249758 275.528505,76.6453407 C275.577052,73.7680738 273.237348,71.3975847 270.338768,71.3857441 C267.512416,71.3739035 265.270989,73.5123167 265.159688,76.3256444 C265.041282,79.2905318 267.223505,81.6420759 270.161159,81.7154877" id="Fill-836" fill="#797979"></path>
                    <path d="M233.393713,81.7154877 C236.30295,81.7060152 238.639101,79.3461827 238.584634,76.4689157 C238.531352,73.5892806 236.127709,71.3099642 233.22084,71.38456 C230.302131,71.4591558 228.102147,73.8343811 228.215817,76.7850599 C228.325934,79.6125963 230.54368,81.7237761 233.393713,81.7154877" id="Fill-837" fill="#797979"></path>
                    <path d="M196.299467,81.7178558 C199.220544,81.779427 201.60761,79.5024787 201.643131,76.6204755 C201.678653,73.7455766 199.328293,71.38456 196.429713,71.3857441 C193.604545,71.3857441 191.373775,73.5336298 191.274314,76.3493256 C191.167748,79.314213 193.359444,81.6551006 196.299467,81.7178558" id="Fill-838" fill="#797979"></path>
                    <path d="M159.408878,81.7166718 C162.327587,81.7533776 164.694524,79.4515641 164.700445,76.5695609 C164.706365,73.693478 162.335876,71.3596947 159.434928,71.38456 C156.612127,71.4082412 154.406223,73.57744 154.330443,76.4014243 C154.251111,79.3674958 156.459384,81.6787818 159.408878,81.7166718" id="Fill-839" fill="#797979"></path>
                    <g id="Group-847" transform="translate(0.000000, 70.700173)" fill="#797979">
                        <path d="M122.393964,11.0153146 C125.315041,11.0875423 127.710395,8.82125057 127.757758,5.94161548 C127.80512,3.06553258 125.463048,0.695043501 122.565652,0.685571017 C119.626814,0.674914473 117.359338,2.96370338 117.387756,5.91319803 C117.414989,8.75612724 119.562875,10.9466391 122.393964,11.0153146" id="Fill-840"></path>
                    </g>
                    <path d="M141.092647,62.7089489 C143.559045,62.6592183 145.528137,60.6463155 145.555371,58.1455798 C145.582604,55.6176107 143.699948,53.60826 141.20158,53.4993265 C138.658218,53.3892089 136.426264,55.4944684 136.393111,58.0342781 C136.361141,60.5515907 138.581254,62.7598635 141.092647,62.7089489" id="Fill-849" fill="#797979"></path>
                    <path d="M473.527099,62.7077648 C475.995865,62.6888199 477.98627,60.6960461 478.037185,58.1941263 C478.089284,55.5513033 476.056252,53.4673568 473.452503,53.4945902 C471.006234,53.5206396 468.940048,55.5489352 468.879661,57.9857316 C468.81809,60.5030442 471.006234,62.7267098 473.527099,62.7077648" id="Fill-853" fill="#797979"></path>
                    <path d="M768.931243,62.7030286 C771.386985,62.769336 773.456722,60.8191884 773.571576,58.3326614 C773.693535,55.6886543 771.72681,53.5431367 769.132534,53.4886699 C766.587988,53.4342032 764.395108,55.5951135 764.419973,58.130187 C764.443654,60.5433023 766.508656,62.6367212 768.931243,62.7030286" id="Fill-858" fill="#797979"></path>
                    <path d="M732.169718,62.7077648 C734.748601,62.6592183 736.739007,60.5006761 736.631257,57.8685096 C736.528244,55.3654058 734.49758,53.4448597 732.007501,53.4969584 C729.561232,53.5466889 727.51044,55.5986657 727.476102,58.0295419 C727.441764,60.5468545 729.657141,62.7563113 732.169718,62.7077648" id="Fill-859" fill="#797979"></path>
                    <path d="M695.281497,62.7089489 C697.862749,62.6248806 699.820001,60.4485774 699.685018,57.8140429 C699.55714,55.3121231 697.502795,53.4152582 695.010348,53.4993265 C692.449225,53.5845788 690.377119,55.8425822 690.544071,58.3669991 C690.705104,60.7860347 692.888511,62.7870969 695.281497,62.7089489" id="Fill-860" fill="#797979"></path>
                    <path d="M658.103182,62.7030286 C660.558924,62.769336 662.628662,60.8191884 662.743515,58.3326614 C662.865474,55.6886543 660.898749,53.5431367 658.304473,53.4886699 C655.759927,53.4342032 653.567047,55.5951135 653.591912,58.130187 C653.615593,60.5433023 655.679411,62.6367212 658.103182,62.7030286" id="Fill-861" fill="#797979"></path>
                    <path d="M621.299031,62.7077648 C623.767797,62.6876358 625.758202,60.694862 625.807933,58.1929422 C625.860032,55.5536714 623.824632,53.4673568 621.222067,53.4945902 C618.775798,53.5206396 616.710796,55.5501192 616.650409,57.9869157 C616.588838,60.5042283 618.778166,62.7267098 621.299031,62.7077648" id="Fill-862" fill="#797979"></path>
                    <path d="M584.216624,62.7030286 C586.780115,62.7728882 588.888927,60.6652605 588.869982,58.050855 C588.853405,55.5406467 586.903258,53.5431367 584.419099,53.4886699 C581.875737,53.4342032 579.682857,55.5939295 579.706538,58.129003 C579.730219,60.5433023 581.794037,62.6355371 584.216624,62.7030286" id="Fill-863" fill="#797979"></path>
                    <path d="M547.485884,62.7101329 C550.064768,62.6414574 552.038597,60.4710746 551.915455,57.8389081 C551.799417,55.3358043 549.755728,53.4294669 547.264465,53.4981424 C544.698606,53.569186 542.619396,55.8117966 542.77214,58.3421338 C542.918963,60.7611694 545.09053,62.7728882 547.485884,62.7101329" id="Fill-864" fill="#797979"></path>
                    <path d="M510.465049,62.7065808 C512.932631,62.691188 514.926589,60.6995983 514.978688,58.1988625 C515.034339,55.5595917 513.001307,53.470909 510.40111,53.4945902 C507.954841,53.5170874 505.886288,55.5441989 505.822348,57.9809954 C505.757225,60.4971239 507.944185,62.7231576 510.465049,62.7065808" id="Fill-865" fill="#797979"></path>
                    <path d="M436.438772,62.7018445 C438.89333,62.7752563 440.968988,60.8274768 441.087394,58.3409498 C441.212904,55.6957587 439.2521,53.5502411 436.656639,53.489854 C434.112093,53.430651 431.915661,55.5868251 431.93579,58.1218986 C431.953551,60.5350138 434.015001,62.6308009 436.438772,62.7018445" id="Fill-866" fill="#797979"></path>
                    <path d="M399.596731,62.7053967 C402.057208,62.7160533 404.078399,60.7327519 404.149443,58.2403046 C404.224039,55.5986657 402.21232,53.4922221 399.613307,53.4922221 C397.171775,53.4922221 395.084276,55.5039409 394.996656,57.9407373 C394.906667,60.4556818 397.068761,62.6959242 399.596731,62.7053967" id="Fill-867" fill="#797979"></path>
                    <path d="M362.793763,62.7101329 C365.260161,62.6308009 367.20794,60.6013212 367.21386,58.1005855 C367.219781,55.5797207 365.305155,53.5762904 362.812708,53.4945902 C360.27053,53.4105219 358.055153,55.5430149 358.048048,58.0804565 C358.042128,60.596585 360.290659,62.789465 362.793763,62.7101329" id="Fill-868" fill="#797979"></path>
                    <path d="M325.637945,62.7030286 C328.09487,62.7586794 330.155136,60.8026115 330.260517,58.3137164 C330.371819,55.6708934 328.395622,53.5336642 325.801345,53.489854 C323.365733,53.4484119 321.24508,55.4293451 321.114834,57.8673256 C320.982219,60.3787179 323.101687,62.6461937 325.637945,62.7030286" id="Fill-869" fill="#797979"></path>
                    <path d="M288.793535,62.7065808 C291.367682,62.7006605 293.398346,60.5586951 293.322566,57.9324489 C293.249155,55.4222407 291.251644,53.4791975 288.759197,53.4934062 C286.202811,53.508799 284.07387,55.7123355 284.169779,58.2485931 C284.260951,60.6664446 286.382788,62.7125011 288.793535,62.7065808" id="Fill-870" fill="#797979"></path>
                    <path d="M251.720601,62.7018445 C254.281724,62.7811766 256.398824,60.6771011 256.386984,58.0638796 C256.376327,55.5524874 254.4321,53.5502411 251.947941,53.489854 C249.404579,53.4282829 247.205779,55.5809048 247.222356,58.1171623 C247.237748,60.5290935 249.295645,62.6272487 251.720601,62.7018445" id="Fill-871" fill="#797979"></path>
                    <path d="M214.923554,62.7065808 C217.391136,62.691188 219.385094,60.6995983 219.437192,58.1988625 C219.492843,55.5595917 217.459811,53.470909 214.85843,53.4945902 C212.413346,53.5170874 210.344792,55.5441989 210.282037,57.9809954 C210.215729,60.4971239 212.402689,62.7231576 214.923554,62.7065808" id="Fill-872" fill="#797979"></path>
                    <g id="Group-878" transform="translate(0.000000, 52.939266)" fill="#797979">
                        <path d="M177.991523,9.76849895 C180.569223,9.74481774 182.580942,7.59930016 182.493321,4.96713371 C182.408069,2.46166174 180.39635,0.526906913 177.906271,0.555324365 C175.346332,0.584925877 173.2316,2.80030303 173.342902,5.33419246 C173.449467,7.75441208 175.583144,9.78981204 177.991523,9.76849895" id="Fill-873"></path>
                    </g>
                    <path d="M639.654336,43.5579547 C641.795117,43.6053171 643.657645,41.8375148 643.714479,39.706206 C643.768946,37.592658 641.970358,35.71237 639.83905,35.6579032 C637.675771,35.6034364 635.883103,37.3333488 635.836925,39.5226766 C635.789563,41.7333175 637.470929,43.5094082 639.654336,43.5579547" id="Fill-880" fill="#797979"></path>
                    <path d="M381.087497,43.5579547 C383.228278,43.5875562 385.078965,41.8043611 385.114487,39.6742363 C385.151193,37.5595043 383.336028,35.693425 381.209455,35.6579032 C379.043809,35.6211973 377.268902,37.3629503 377.238116,39.5546462 C377.206147,41.762919 378.902906,43.5259851 381.087497,43.5579547" id="Fill-881" fill="#797979"></path>
                    <path d="M344.312947,43.5555866 C346.454912,43.4940154 348.239291,41.6220158 348.1718,39.5060997 C348.104308,37.3795271 346.216916,35.595148 344.097448,35.654351 C341.929433,35.7159221 340.240963,37.5227984 340.29543,39.7227828 C340.348712,41.9227672 342.125987,43.6195258 344.312947,43.5555866" id="Fill-882" fill="#797979"></path>
                    <path d="M676.606496,43.5579547 C678.747277,43.6005809 680.606252,41.8292264 680.657166,39.6979175 C680.706897,37.5831855 678.903573,35.7076337 676.773448,35.6579032 C674.608986,35.6081726 672.822238,37.3416372 672.779612,39.5321491 C672.736986,41.7404219 674.421904,43.5141445 676.606496,43.5579547" id="Fill-883" fill="#797979"></path>
                    <path d="M270.345873,43.5567706 C272.48547,43.5401938 274.304187,41.7096363 274.286426,39.5877999 C274.268665,37.4671476 272.416794,35.6436945 270.293774,35.6567191 C268.130496,35.6697438 266.397031,37.4493867 266.410056,39.6410826 C266.42308,41.8481714 268.156545,43.5733475 270.345873,43.5567706" id="Fill-884" fill="#797979"></path>
                    <path d="M233.2907,43.5579547 C235.431481,43.602949 237.29164,41.8327786 237.343739,39.7002857 C237.397022,37.5867377 235.594882,35.7100018 233.463573,35.6590872 C231.29911,35.6069886 229.511179,37.338085 229.467369,39.5285969 C229.423558,41.7380537 231.106108,43.5117763 233.2907,43.5579547" id="Fill-885" fill="#797979"></path>
                    <path d="M196.468787,43.5567706 C198.608384,43.5366416 200.423549,41.7001638 200.401052,39.5795115 C200.378555,37.4588592 198.521948,35.6377742 196.400112,35.6555351 C194.238017,35.67448 192.506921,37.4576751 192.524682,39.6493711 C192.541259,41.8564598 194.279459,43.5768997 196.468787,43.5567706" id="Fill-886" fill="#797979"></path>
                    <path d="M159.4444,43.5567706 C161.583997,43.5804518 163.429948,41.7901524 163.459549,39.6612117 C163.487967,37.5488478 161.664513,35.6851366 159.540309,35.6579032 C157.374662,35.6294857 155.605676,37.3759749 155.581995,39.5676709 C155.55713,41.7759437 157.259808,43.5342735 159.4444,43.5567706" id="Fill-887" fill="#797979"></path>
                    <path d="M122.51829,43.5567706 C124.657887,43.5709794 126.497917,41.7712074 126.516862,39.6446348 C126.534623,37.5322709 124.702882,35.6756641 122.579861,35.6567191 C120.414214,35.6377742 118.654701,37.3913677 118.639308,39.5842477 C118.623915,41.7925205 120.332514,43.5425619 122.51829,43.5567706" id="Fill-888" fill="#797979"></path>
                    <path d="M713.53379,43.5579547 C715.674571,43.6076852 717.539466,41.8446192 717.598669,39.7121263 C717.657872,37.5985783 715.861653,35.7159221 713.72916,35.6590872 C711.565881,35.5998842 709.77203,37.3274285 709.722299,39.5179403 C709.672568,41.7285813 711.349198,43.505856 713.53379,43.5579547" id="Fill-892" fill="#797979"></path>
                    <path d="M750.501342,43.5579547 C752.643307,43.5946606 754.497546,41.8185699 754.541356,39.687261 C754.586351,37.572529 752.777106,35.7017134 750.648165,35.6579032 C748.483703,35.6140929 746.702876,37.3511097 746.664986,39.5416216 C746.627096,41.7498943 748.31675,43.5200648 750.501342,43.5579547" id="Fill-893" fill="#797979"></path>
                    <path d="M491.878852,43.5579547 C494.019633,43.6076852 495.883345,41.8446192 495.942548,39.7109422 C496.001751,37.5985783 494.205531,35.7159221 492.073038,35.6590872 C489.909759,35.5998842 488.115908,37.3286125 488.066177,39.5179403 C488.016447,41.7285813 489.69426,43.5070401 491.878852,43.5579547" id="Fill-894" fill="#797979"></path>
                    <path d="M787.486655,43.5567706 C789.626252,43.5709794 791.466282,41.7712074 791.485227,39.6446348 C791.502988,37.5322709 789.671247,35.6756641 787.548226,35.6567191 C785.38258,35.6377742 783.623066,37.3925518 783.607673,39.5842477 C783.59228,41.7925205 785.300879,43.5425619 787.486655,43.5567706" id="Fill-895" fill="#797979"></path>
                    <path d="M528.858245,43.5579547 C530.999026,43.5875562 532.849713,41.8043611 532.885235,39.6742363 C532.92194,37.5595043 531.106776,35.693425 528.980203,35.6579032 C526.814557,35.6211973 525.03965,37.3629503 525.008864,39.5546462 C524.978079,41.762919 526.673653,43.5259851 528.858245,43.5579547" id="Fill-897" fill="#797979"></path>
                    <path d="M307.236461,43.5567706 C309.377242,43.5686112 311.21372,41.7652871 311.229113,39.6398986 C311.244506,37.5263506 309.41158,35.673296 307.28856,35.6579032 C305.122913,35.6413263 303.365767,37.396104 303.352743,39.588984 C303.339718,41.7972568 305.050685,43.5461141 307.236461,43.5567706" id="Fill-898" fill="#797979"></path>
                    <path d="M455.058123,43.5567706 C457.196537,43.5413779 459.016438,41.7108204 458.999861,39.588984 C458.983284,37.4695157 457.131413,35.6436945 455.008393,35.6567191 C452.847482,35.6685597 451.110466,37.4482026 451.12349,39.6398986 C451.135331,41.8469873 452.868796,43.5721634 455.058123,43.5567706" id="Fill-902" fill="#797979"></path>
                    <path d="M417.782715,43.5472982 C419.916392,43.7106985 421.853515,42.0636704 422.044149,39.921705 C422.230047,37.8365745 420.520263,35.8390644 418.398427,35.6626394 C416.261198,35.4838463 414.339468,37.1474513 414.186724,39.3071776 C414.031612,41.5178185 415.611148,43.3803456 417.782715,43.5472982" id="Fill-903" fill="#797979"></path>
                    <path d="M602.667839,43.5579547 C604.805068,43.6289983 606.68654,41.8825091 606.771793,39.7500162 C606.854677,37.6423885 605.072666,35.7396034 602.940173,35.6590872 C600.778078,35.5785711 598.962914,37.2919066 598.894238,39.4788663 C598.825563,41.6906913 600.4868,43.4869111 602.667839,43.5579547" id="Fill-904" fill="#797979"></path>
                    <g id="Group-910" transform="translate(0.000000, 35.178359)" fill="#797979">
                        <path d="M565.956044,8.37722789 C568.096825,8.32394517 569.887125,6.45668179 569.827922,4.34076572 C569.768719,2.2141931 567.886062,0.423893652 565.766594,0.475992313 C563.599763,0.530459095 561.904189,2.33259914 561.951551,4.53139945 C561.998914,6.73375194 563.7679,8.43287873 565.956044,8.37722789" id="Fill-905"></path>
                    </g>
                    <path d="M473.377907,24.1867253 C475.026119,24.2589529 476.51922,22.849921 476.548821,21.1957885 C476.578423,19.5842822 475.091243,18.0746051 473.483288,18.0828935 C471.833892,18.092366 470.446173,19.5534966 470.492352,21.2324944 C470.536162,22.8049267 471.817315,24.1180498 473.377907,24.1867253" id="Fill-913" fill="#797979"></path>
                    <path d="M547.387607,24.1914615 C549.026347,24.1890934 550.479189,22.7019134 550.435379,21.0714621 C550.391569,19.4575877 548.836897,18.0047455 547.243152,18.0888138 C545.581915,18.1764343 544.27116,19.6754548 544.38483,21.3568207 C544.491395,22.9245168 545.835304,24.1938296 547.387607,24.1914615" id="Fill-914" fill="#797979"></path>
                    <path d="M584.080458,24.180805 C585.718013,24.3252603 587.257292,22.9849039 587.363857,21.3201148 C587.46687,19.7086085 586.056654,18.1480168 584.435676,18.0805254 C582.805224,18.014218 581.335805,19.4386427 581.315676,21.106984 C581.296731,22.67468 582.528154,24.044638 584.080458,24.180805" id="Fill-915" fill="#797979"></path>
                    <path d="M621.237459,24.1902774 C622.870279,24.2092224 624.347986,22.7338831 624.325489,21.106984 C624.302992,19.5013979 622.757793,18.0248745 621.164048,18.0876297 C619.617665,18.1480168 618.317566,19.4706124 618.263099,21.0383084 C618.205081,22.7196743 619.573854,24.1701484 621.237459,24.1902774" id="Fill-916" fill="#797979"></path>
                    <path d="M658.174226,24.1902774 C659.807045,24.2127746 661.288305,22.7398034 661.268176,21.1129043 C661.249231,19.5061342 659.707584,18.0284267 658.112655,18.0876297 C656.566272,18.1444646 655.263805,19.4646921 655.205786,21.0323881 C655.144215,22.713754 656.510621,24.1665962 658.174226,24.1902774" id="Fill-917" fill="#797979"></path>
                    <path d="M695.211638,24.1938296 C696.86577,24.1583078 698.274802,22.6616554 698.199022,21.0193635 C698.124427,19.3818078 696.568571,17.975144 694.961801,18.0911819 C693.302932,18.2119561 692.017043,19.7346579 692.15913,21.4101034 C692.290561,22.9695111 693.668807,24.2257993 695.211638,24.1938296" id="Fill-918" fill="#797979"></path>
                    <path d="M732.058416,24.1890934 C733.701892,24.2139586 735.173679,22.751644 735.154734,21.1140883 C735.135789,19.5085023 733.594142,18.0284267 731.999213,18.0876297 C730.45283,18.1432806 729.150363,19.4623239 729.09116,21.0312041 C729.029589,22.71257 730.393627,24.1654122 732.058416,24.1890934" id="Fill-919" fill="#797979"></path>
                    <path d="M769.001103,24.1890934 C770.644579,24.2139586 772.116366,22.751644 772.097421,21.1140883 C772.078476,19.5085023 770.536829,18.0284267 768.9419,18.0876297 C767.395517,18.1432806 766.091866,19.4623239 766.035031,21.0312041 C765.972276,22.71257 767.336314,24.1654122 769.001103,24.1890934" id="Fill-920" fill="#797979"></path>
                    <path d="M805.849065,24.1855412 C807.497277,24.2660573 808.995114,22.8641297 809.03182,21.2088132 C809.068525,19.5949387 807.590818,18.0817094 805.979312,18.0828935 C804.444769,18.0840775 803.086652,19.3770716 802.983639,20.9364792 C802.871153,22.6261335 804.175988,24.1050251 805.849065,24.1855412" id="Fill-921" fill="#797979"></path>
                    <path d="M842.723076,24.1831731 C844.361816,24.3027632 845.886886,22.9375415 845.967402,21.2774887 C846.04555,19.6624302 844.611653,18.1207834 842.991858,18.0793413 C841.471524,18.0402673 840.070781,19.3155004 839.931062,20.8666197 C839.779502,22.5491696 841.051183,24.0600308 842.723076,24.1831731" id="Fill-922" fill="#797979"></path>
                    <g id="Group-927" transform="translate(0.000000, 17.417451)"></g>
                    <path d="M436.559546,24.1914615 C438.198286,24.1890934 439.651128,22.7019134 439.607318,21.0714621 C439.563508,19.4575877 438.008837,18.0047455 436.415091,18.0888138 C434.753854,18.1764343 433.443099,19.6754548 433.556769,21.3568207 C433.66215,22.9245168 435.007243,24.1938296 436.559546,24.1914615" id="Fill-928" fill="#797979"></path>
                    <path d="M399.42149,24.1831731 C401.062597,24.2980269 402.582931,22.9268849 402.656343,21.2668321 C402.727386,19.6505896 401.287569,18.1148631 399.668958,18.0805254 C398.146256,18.0473717 396.752617,19.3249729 396.617634,20.8772762 C396.471995,22.5610102 397.749596,24.0671352 399.42149,24.1831731" id="Fill-929" fill="#797979"></path>
                    <path d="M362.335531,24.1772528 C363.941117,24.3726228 365.538415,23.0571316 365.698263,21.4089194 C365.853375,19.7997812 364.499994,18.2131401 362.868358,18.0911819 C361.352761,17.9786962 359.890446,19.1923582 359.68442,20.735189 C359.464185,22.3976099 360.680215,23.9771466 362.335531,24.1772528" id="Fill-930" fill="#797979"></path>
                    <path d="M325.795425,24.1938296 C327.437717,24.1535716 328.852669,22.6391582 328.770969,21.0087069 C328.689269,19.366415 327.133413,17.9692237 325.524275,18.092366 C323.86659,18.2178764 322.585437,19.7464985 322.73226,21.42076 C322.869611,22.9789836 324.253778,24.2317196 325.795425,24.1938296" id="Fill-931" fill="#797979"></path>
                    <path d="M288.685785,24.1867253 C290.330445,24.2459283 291.821178,22.8215035 291.837754,21.1744754 C291.854331,19.5653372 290.350574,18.0615804 288.747357,18.0840775 C287.206894,18.1053906 285.871274,19.4066731 285.783653,20.970817 C285.690112,22.6604713 287.012708,24.1275222 288.685785,24.1867253" id="Fill-932" fill="#797979"></path>
                    <path d="M251.764412,24.1879093 C253.405519,24.2340877 254.893883,22.7930861 254.89862,21.1531623 C254.902172,19.5428401 253.386574,18.0497398 251.783357,18.0852616 C250.126856,18.1219675 248.769923,19.5902025 248.838598,21.2751205 C248.902537,22.8463688 250.207372,24.1440991 251.764412,24.1879093" id="Fill-933" fill="#797979"></path>
                    <path d="M214.708055,24.1831731 C216.349163,24.2980269 217.869496,22.9268849 217.942908,21.2668321 C218.013952,19.6505896 216.574134,18.1148631 214.955523,18.0805254 C213.431638,18.0473717 212.039182,19.3249729 211.9042,20.8772762 C211.75856,22.5610102 213.036161,24.0671352 214.708055,24.1831731" id="Fill-934" fill="#797979"></path>
                    <path d="M177.867197,24.1879093 C179.511857,24.240008 181.000221,22.8096629 181.010878,21.1650029 C181.021534,19.5558647 179.513041,18.0568442 177.909823,18.0840775 C176.255691,18.1136791 174.890469,19.5819141 174.953224,21.2632799 C175.011243,22.8368963 176.307789,24.1369947 177.867197,24.1879093" id="Fill-935" fill="#797979"></path>
                    <path d="M140.954112,24.1890934 C142.591667,24.2246152 144.077663,22.7705889 144.071743,21.1365855 C144.065823,19.5286313 142.5372,18.0402673 140.938719,18.0864457 C139.278666,18.1338081 137.933573,19.6067793 138.011721,21.2928814 C138.083949,22.8605775 139.398256,24.1547556 140.954112,24.1890934" id="Fill-936" fill="#797979"></path>
                    <path d="M103.993664,24.1879093 C105.634772,24.2340877 107.123136,22.7930861 107.127872,21.1531623 C107.131424,19.5428401 105.615827,18.0497398 104.012609,18.0852616 C102.356108,18.1219675 100.999175,19.5902025 101.06785,21.2751205 C101.13179,22.8463688 102.436624,24.1440991 103.993664,24.1879093" id="Fill-937" fill="#797979"></path>
                    <path d="M510.285072,24.1843571 C511.930916,24.279082 513.437041,22.8913631 513.487956,21.2313103 C513.537686,19.6257243 512.067083,18.0947341 510.461497,18.0817094 C508.819205,18.0686848 507.406621,19.5203429 507.432671,21.1957885 C507.457536,22.7694049 508.723296,24.0955526 510.285072,24.1843571" id="Fill-939" fill="#797979"></path>
                    <path d="M418.006503,4.34660787 C418.745357,4.24122649 419.401326,3.54144674 420.597227,2.79193646 C419.483026,1.93112449 418.896916,1.16622142 418.167535,0.989796412 C417.101881,0.730487167 416.421046,1.50604678 416.372499,2.58472588 C416.323953,3.65866873 416.914799,4.50290385 418.006503,4.34660787" id="Fill-947" fill="#797979"></path>
                    <path d="M381.171565,4.34423975 C381.902131,4.19268001 382.510738,3.45737845 383.658092,2.63682454 C382.484688,1.84231996 381.853584,1.11530682 381.118283,0.987428291 C380.037235,0.797978614 379.41442,1.61853253 379.428628,2.69602756 C379.442837,3.77707478 380.092886,4.56921124 381.171565,4.34423975" id="Fill-949" fill="#797979"></path>
                    <path d="M344.597121,4.46738204 C344.946419,4.04230433 345.752764,3.47632342 345.914981,2.76351901 C346.14824,1.74404294 345.417675,1.01821386 344.321235,0.938881811 C343.203482,0.859549759 342.549881,1.48236557 342.487125,2.56222873 C342.42437,3.63380346 342.984431,4.30279763 344.597121,4.46738204" id="Fill-950" fill="#797979"></path>
                    <path d="M307.365524,4.34187163 C308.088984,4.15715819 308.66207,3.39107106 309.766798,2.51960255 C308.563793,1.78193287 307.897167,1.08096907 307.152393,0.98624423 C306.059505,0.846525094 305.484051,1.71088924 305.544439,2.77772774 C305.604826,3.85877495 306.304605,4.61420554 307.365524,4.34187163" id="Fill-951" fill="#797979"></path>
                    <path d="M270.328112,4.34542381 C271.059861,4.19860031 271.675573,3.46803499 272.830032,2.65695357 C271.662548,1.8529765 271.038548,1.12359525 270.303246,0.987428291 C269.221015,0.78732207 268.594647,1.6043238 268.600568,2.68063478 C268.606488,3.76168199 269.248249,4.56092282 270.328112,4.34542381" id="Fill-952" fill="#797979"></path>
                    <path d="M233.444628,4.39633841 C234.552908,4.35016005 235.295314,3.65274843 235.088104,2.62498393 C234.942464,1.90507516 234.152696,1.31541304 233.808134,0.871390364 C232.214389,1.01229356 231.622359,1.64694998 231.656697,2.7279972 C231.692218,3.81259659 232.31977,4.44251677 233.444628,4.39633841" id="Fill-953" fill="#797979"></path>
                    <path d="M159.5261,4.34423975 C160.255481,4.18794377 160.859352,3.44790597 162.000787,2.62024769 C160.822646,1.83284747 160.185622,1.11057058 159.449136,0.987428291 C158.366905,0.805082977 157.751194,1.63037313 157.772507,2.70786817 C157.792636,3.79246757 158.450973,4.57513154 159.5261,4.34423975" id="Fill-954" fill="#797979"></path>
                    <path d="M122.5621,4.34542381 C123.29385,4.19741625 123.907193,3.46448281 125.059284,2.6498492 C123.890616,1.84942432 123.264248,1.12122713 122.528947,0.987428291 C121.445531,0.789690191 120.821531,1.60906004 120.82982,2.68537102 C120.838108,3.76641824 121.482237,4.56329094 122.5621,4.34542381" id="Fill-955" fill="#797979"></path>
                    <path d="M85.7271628,4.34187163 C86.4470715,4.15005383 87.0142365,3.37923046 88.1083084,2.4971054 C86.8958304,1.76772415 86.2232841,1.07031252 85.4796941,0.98506017 C84.3903585,0.859549759 83.8184573,1.72983421 83.8883168,2.79548864 C83.9593605,3.87653586 84.6686127,4.62367802 85.7271628,4.34187163" id="Fill-957" fill="#797979"></path>
                    <path d="M861.505828,4.34187163 C862.229289,4.15715819 862.802374,3.39225512 863.907102,2.51960255 C862.699361,1.77956475 862.035103,1.07978501 861.292697,0.98624423 C860.199809,0.846525094 859.624356,1.71088924 859.684743,2.77772774 C859.74513,3.85877495 860.443726,4.61420554 861.505828,4.34187163" id="Fill-960" fill="#797979"></path>
                    <path d="M824.411581,4.34660787 C825.148067,4.2258337 825.787459,3.51539741 826.969152,2.74220592 C825.83719,1.9038911 825.235687,1.14964458 824.502754,0.988612351 C823.432363,0.752984316 822.769289,1.5415686 822.740872,2.62143175 C822.713638,3.69774273 823.322245,4.525401 824.411581,4.34660787" id="Fill-961" fill="#797979"></path>
                    <path d="M787.667816,4.39278623 C788.773729,4.29806139 789.480613,3.55565547 789.227224,2.54446782 C789.048431,1.83047935 788.225509,1.27752311 787.305494,0.205948375 C786.605714,1.40184946 785.911855,2.08150017 785.846731,2.81798579 C785.752006,3.87298368 786.553615,4.48751107 787.667816,4.39278623" id="Fill-962" fill="#797979"></path>
                    <path d="M750.587778,4.34542381 C751.319528,4.19741625 751.932871,3.46448281 753.084962,2.65103326 C751.916294,1.84942432 751.289926,1.12122713 750.554625,0.987428291 C749.471209,0.789690191 748.847209,1.60906004 748.855498,2.68537102 C748.863786,3.76641824 749.507915,4.56329094 750.587778,4.34542381" id="Fill-963" fill="#797979"></path>
                    <path d="M714.010966,4.47211828 C714.363816,4.04822463 715.174898,3.4857959 715.34185,2.77299149 C715.58103,1.75588354 714.854017,1.02531823 713.758761,0.940065872 C712.642192,0.852445396 711.983855,1.47289309 711.913995,2.55157218 C711.844135,3.62314692 712.40538,4.29332515 714.010966,4.47211828" id="Fill-964" fill="#797979"></path>
                    <path d="M676.792393,4.34187163 C677.515854,4.15715819 678.088939,3.39225512 679.193668,2.51960255 C677.985926,1.77956475 677.321668,1.07978501 676.579262,0.98624423 C675.486374,0.847709154 674.910921,1.71088924 674.971308,2.77772774 C675.031695,3.85877495 675.730291,4.61420554 676.792393,4.34187163" id="Fill-965" fill="#797979"></path>
                    <path d="M639.781031,4.34423975 C640.510412,4.18794377 641.114283,3.44790597 642.255717,2.62024769 C641.081129,1.83639965 640.44292,1.11175464 639.704067,0.987428291 C638.621835,0.805082977 638.006124,1.63037313 638.027437,2.70786817 C638.047566,3.79246757 638.705904,4.57513154 639.781031,4.34423975" id="Fill-966" fill="#797979"></path>
                    <path d="M566.355072,4.43659647 C566.675953,4.00086221 567.44796,3.39343918 567.571102,2.67353041 C567.748711,1.64221374 566.984992,0.957826779 565.883816,0.93651369 C564.761327,0.914016541 564.151536,1.57472229 564.142063,2.65458545 C564.131407,3.73563266 564.730541,4.36318472 566.355072,4.43659647" id="Fill-967" fill="#797979"></path>
                    <path d="M528.942313,4.34423975 C529.672878,4.19268001 530.281486,3.45737845 531.42884,2.63682454 C530.255436,1.84231996 529.624332,1.11530682 528.88903,0.987428291 C527.807983,0.797978614 527.185167,1.61853253 527.199376,2.69602756 C527.213585,3.77707478 527.863634,4.56921124 528.942313,4.34423975" id="Fill-968" fill="#797979"></path>
                    <path d="M492.07067,4.34305569 C492.794131,4.16071037 493.371952,3.39935949 494.481417,2.53262722 C493.277227,1.78666911 492.615338,1.08452125 491.874116,0.98624423 C490.781228,0.840604791 490.202222,1.70141676 490.257873,2.76825525 C490.313524,3.85048653 491.006199,4.6094693 492.07067,4.34305569" id="Fill-969" fill="#797979"></path>
                    <path d="M455.10075,4.39633841 C456.20903,4.35016005 456.951436,3.65274843 456.744225,2.62498393 C456.598586,1.90507516 455.808818,1.31541304 455.464256,0.871390364 C453.870511,1.01229356 453.27848,1.64694998 453.312818,2.7279972 C453.34834,3.81259659 453.975892,4.44251677 455.10075,4.39633841" id="Fill-970" fill="#797979"></path>
                    <path d="M602.917676,4.34187163 C603.639953,4.15242195 604.209486,3.38278264 605.305926,2.5030257 C604.094632,1.77127633 603.424454,1.07504877 602.682048,0.98624423 C601.58916,0.855997578 601.019627,1.72272985 601.085934,2.78956834 C601.152242,3.87416774 601.86031,4.61894178 602.917676,4.34187163" id="Fill-971" fill="#797979"></path>
                    <g id="Group-977" transform="translate(0.000000, 0.840605)">
                        <mask id="mask-2" fill="white">
                            <use xlink:href="#path-1"></use>
                        </mask>
                        <g id="Clip-973"></g>
                        <path d="M196.925835,3.59717574 C197.246715,3.16144148 198.018722,2.55520251 198.144233,1.8364778 C198.32421,0.803977065 197.560491,0.119590108 196.460499,0.0959088988 C195.336825,0.0710436287 194.727034,0.731749376 194.715194,1.81161253 C194.703353,2.89265975 195.302488,3.5202118 196.925835,3.59717574" id="Fill-972" fill="#797979" mask="url(#mask-2)"></path>
                    </g>
                </g>
            </g>
        </g>
    </g>
</svg>