<svg xmlns="http://www.w3.org/2000/svg" xmlns:xlink="http://www.w3.org/1999/xlink" width="673" height="406" viewBox="0 0 673 406">
    <defs>
        <path id="a" d="M.071.095h947.177V208.58H.071z"/>
    </defs>
    <g fill="none" fill-rule="evenodd">
        <path fill="#797979" d="M668.898 6.614c4.845 2.932 11.25 1.339 14.13-3.514 2.818-4.746 1.293-11.014-3.4-13.972-4.787-3.019-11.154-1.496-14.13 3.382-3.004 4.92-1.506 11.135 3.4 14.104M675.32 31.804c4.75 2.86 11.065 1.245 13.864-3.546 2.736-4.685 1.167-10.876-3.468-13.683-4.746-2.873-10.983-1.257-13.824 3.582-2.783 4.739-1.252 10.829 3.428 13.647M643.713 12.814c4.697 2.768 10.847 1.242 13.694-3.399 2.895-4.718 1.33-11.086-3.417-13.902-4.69-2.78-10.787-1.248-13.654 3.433-2.935 4.79-1.41 11.045 3.377 13.868M649.96 37.844c4.472 2.828 10.613 1.422 13.463-3.083 2.92-4.617 1.479-10.826-3.169-13.647-4.566-2.77-10.58-1.296-13.398 3.286-2.82 4.582-1.435 10.57 3.105 13.444M618.362 18.859c4.512 2.79 10.617 1.338 13.436-3.192 2.886-4.637 1.39-10.853-3.278-13.62-4.602-2.731-10.592-1.212-13.372 3.393-2.782 4.603-1.346 10.6 3.214 13.419M586.696-.168c4.512 2.79 10.617 1.338 13.436-3.192 2.885-4.637 1.39-10.853-3.278-13.62-4.603-2.731-10.592-1.212-13.373 3.393-2.78 4.603-1.345 10.6 3.215 13.419M656.613 63.122c4.518 2.647 10.409 1.107 13.085-3.42 2.676-4.526 1.164-10.432-3.35-13.091-4.515-2.659-10.458-1.12-13.104 3.392-2.65 4.517-1.116 10.49 3.369 13.119M624.839 44.029c4.464 2.715 10.404 1.246 13.128-3.246 2.734-4.506 1.306-10.406-3.178-13.135-4.466-2.717-10.416-1.26-13.145 3.22-2.72 4.464-1.266 10.447 3.195 13.16M593.185 25.01c4.47 2.707 10.403 1.231 13.123-3.266 2.727-4.509 1.29-10.408-3.196-13.13-4.471-2.71-10.422-1.245-13.142 3.239-2.712 4.47-1.251 10.45 3.215 13.156M561.49 5.965c4.456 2.724 10.404 1.266 13.136-3.22 2.741-4.503 1.326-10.402-3.153-13.14-4.459-2.728-10.41-1.283-13.152 3.192-2.729 4.455-1.287 10.442 3.17 13.168M609.28 34.18c-4.402-2.655-10.31-1.147-12.861 3.28-2.518 4.367-1.059 10.086 3.234 12.68 4.416 2.668 10.19 1.172 12.825-3.323 2.568-4.378 1.14-10.02-3.198-12.637M641.072 53.284c-4.354-2.723-10.264-1.316-12.916 3.076-2.647 4.381-1.136 10.31 3.281 12.877 4.374 2.542 10.007 1.085 12.633-3.267 2.632-4.362 1.3-9.999-2.998-12.686M672.592 72.222c-4.313-2.586-10.032-1.204-12.709 3.07-2.709 4.326-1.27 10.277 3.123 12.914 4.33 2.599 10.008 1.205 12.67-3.112 2.74-4.443 1.359-10.208-3.084-12.872M546.074-3.796c-4.353-2.724-10.262-1.317-12.916 3.074-2.647 4.38-1.137 10.31 3.28 12.878 4.373 2.542 10.007 1.085 12.633-3.265 2.632-4.363 1.301-9.999-2.997-12.687M577.554 15.117c-4.327-2.564-10.051-1.15-12.694 3.133-2.685 4.35-1.217 10.29 3.188 12.9 4.35 2.575 10.006 1.156 12.655-3.177 2.72-4.448 1.306-10.216-3.149-12.856M615.517 59.796c-4.207-2.583-9.846-1.24-12.446 2.965-2.57 4.159-1.204 9.877 2.98 12.454 4.21 2.594 9.806 1.237 12.403-3.01 2.61-4.264 1.297-9.81-2.937-12.41M647.166 78.812c-4.213-2.574-9.851-1.218-12.439 2.992-2.562 4.17-1.183 9.88 3.006 12.448 4.22 2.585 9.805 1.217 12.397-3.037 2.602-4.268 1.276-9.812-2.964-12.403M678.801 97.82c-4.222-2.556-9.865-1.175-12.426 3.042-2.546 4.193-1.146 9.889 3.055 12.435 4.236 2.568 9.805 1.18 12.386-3.085 2.585-4.275 1.236-9.817-3.015-12.391M488.772-16.36c-4.231-2.537-9.88-1.129-12.413 3.093-2.525 4.212-1.103 9.898 3.107 12.423 4.25 2.547 9.805 1.138 12.372-3.138 2.57-4.28 1.197-9.82-3.066-12.378M520.556 2.738c-4.19-2.602-9.83-1.287-12.46 2.904-2.597 4.137-1.255 9.866 2.918 12.47 4.193 2.613 9.808 1.28 12.42-2.95 2.627-4.256 1.342-9.805-2.878-12.424M552.015 21.641c-4.258-2.487-9.92-1.006-12.378 3.236-2.47 4.268-.988 9.92 3.25 12.387 4.286 2.494 9.806 1.026 12.338-3.281 2.521-4.291 1.078-9.837-3.21-12.342M583.695 40.677c-4.255-2.496-9.914-1.028-12.382 3.213-2.481 4.26-1.008 9.916 3.227 12.391 4.28 2.503 9.804 1.044 12.342-3.257 2.53-4.29 1.099-9.834-3.187-12.347M685.026 123.446c-4.123-2.534-9.678-1.17-12.128 2.978-2.391 4.046-1.054 9.467 2.946 11.944 4.109 2.543 9.587 1.171 12.085-3.027 2.444-4.107 1.151-9.404-2.903-11.895M653.333 104.403c-4.037-2.461-9.395-1.215-11.966 2.782-2.58 4.013-1.264 9.656 2.839 12.171 4.028 2.47 9.406 1.194 11.927-2.828 2.61-4.167 1.358-9.591-2.8-12.125M621.737 85.418c-4.106-2.557-9.662-1.226-12.146 2.91-2.474 4.117-1.03 9.707 3.123 12.105 4.108 2.37 9.399.986 11.857-3.103 2.465-4.099 1.205-9.398-2.834-11.912M558.413 47.37c-4.103-2.561-9.66-1.236-12.15 2.896-2.477 4.113-1.042 9.705 3.11 12.108 4.106 2.375 9.4.997 11.861-3.09 2.47-4.097 1.214-9.396-2.821-11.915M526.632 28.272c-4.148-2.498-9.704-1.082-12.101 3.085-2.354 4.09-.975 9.48 3.05 11.915 4.14 2.505 9.583 1.092 12.056-3.131 2.412-4.115 1.069-9.414-3.005-11.87M590.077 66.395c-4.103-2.559-9.659-1.234-12.148 2.9-2.478 4.113-1.04 9.704 3.112 12.106 4.105 2.376 9.399.995 11.86-3.091 2.469-4.098 1.212-9.397-2.824-11.915M463.386-9.728c-4.114-2.546-9.67-1.2-12.138 2.94-2.405 4.035-1.083 9.461 2.912 11.953 4.098 2.558 9.586 1.2 12.093-2.99 2.454-4.1 1.178-9.402-2.867-11.903M495.003 9.269c-4.133-2.52-9.688-1.133-12.117 3.021-2.375 4.064-1.02 9.475 2.99 11.932 4.122 2.528 9.585 1.138 12.073-3.07 2.43-4.111 1.117-9.407-2.946-11.883M659.45 129.968c-3.975-2.388-9.312-1.033-11.647 2.955-2.343 4-.939 9.346 3.054 11.633 4.056 2.324 9.222.899 11.562-3.189 2.267-3.959.94-9.05-2.97-11.399M627.858 110.987c-3.947-2.431-9.277-1.138-11.677 2.833-2.332 3.86-1.116 9.063 2.69 11.516 3.892 2.508 9.224 1.288 11.69-2.677 2.49-4 1.282-9.219-2.703-11.672M596.192 91.96c-3.947-2.431-9.277-1.138-11.676 2.833-2.333 3.86-1.118 9.063 2.69 11.516 3.89 2.508 9.223 1.288 11.69-2.677 2.489-4 1.281-9.218-2.704-11.672M564.61 72.985c-3.911-2.476-9.245-1.247-11.71 2.697-2.439 3.904-1.15 9.297 2.797 11.698 3.88 2.359 9.04 1.15 11.482-2.69 2.532-3.984 1.388-9.2-2.57-11.705M532.865 53.91c-3.944-2.435-9.275-1.144-11.68 2.825-2.333 3.856-1.12 9.062 2.684 11.518 3.889 2.51 9.223 1.293 11.691-2.67 2.492-4 1.287-9.218-2.695-11.674M500.964 34.742c-3.937-2.245-9.087-.915-11.44 2.957-2.397 3.947-1.056 9.32 2.912 11.67 4.014 2.378 9.22 1.01 11.599-3.047 2.37-4.042.984-9.266-3.071-11.58M469.41 15.783c-3.987-2.364-9.326-.978-11.629 3.02-2.316 4.02-.882 9.358 3.121 11.616 4.077 2.299 9.221.848 11.545-3.255 2.244-3.968.887-9.055-3.036-11.38M437.892-3.156c-3.935-2.448-9.266-1.177-11.69 2.785-2.406 3.937-1.079 9.314 2.886 11.677 3.905 2.327 9.038 1.083 11.459-2.778 2.504-3.996 1.32-9.213-2.655-11.684M507.242 60.415c-3.827-2.263-8.908-.96-11.166 2.863-2.26 3.825-.959 8.932 2.848 11.18 3.837 2.268 8.85.966 11.14-2.893 2.288-3.855 1.015-8.884-2.822-11.15M380.625-15.665c-3.81-2.288-8.893-1.02-11.185 2.79-2.287 3.8-1.02 8.915 2.772 11.198 3.812 2.295 8.85 1.022 11.16-2.82 2.313-3.844 1.076-8.869-2.747-11.168M665.509 155.51c-3.854-2.222-8.927-.87-11.137 2.97-2.222 3.858-.876 8.952 2.946 11.152 3.872 2.226 8.853.883 11.114-2.997 2.255-3.868.933-8.898-2.923-11.124M634.032 136.6c-3.773-2.336-8.86-1.127-11.213 2.662-2.334 3.76-1.129 8.886 2.642 11.23 3.768 2.34 8.846 1.118 11.19-2.693 2.356-3.828 1.18-8.85-2.62-11.2M602.287 117.524c-3.809-2.29-8.893-1.022-11.185 2.788-2.287 3.802-1.02 8.916 2.773 11.199 3.811 2.296 8.849 1.022 11.16-2.819 2.312-3.844 1.076-8.87-2.748-11.168M570.657 98.518c-3.793-2.308-8.88-1.065-11.198 2.734-2.308 3.781-1.068 8.902 2.714 11.212 3.793 2.316 8.847 1.066 11.174-2.763 2.33-3.837 1.122-8.862-2.69-11.183M538.844 79.403c-3.854-2.223-8.927-.87-11.136 2.969-2.222 3.858-.876 8.952 2.946 11.152 3.871 2.227 8.853.884 11.114-2.997 2.255-3.868.933-8.898-2.924-11.124M475.73 41.482c-3.763-2.351-8.85-1.164-11.222 2.618-2.352 3.75-1.17 8.875 2.595 11.239 3.753 2.357 8.843 1.156 11.202-2.648 2.369-3.82 1.215-8.84-2.575-11.21M443.948 22.384c-3.81-2.283-8.897-1.007-11.182 2.803-2.28 3.805-1.008 8.92 2.787 11.195 3.817 2.29 8.85 1.012 11.157-2.834 2.307-3.844 1.063-8.873-2.762-11.164M412.335 3.39c-3.788-2.315-8.876-1.08-11.2 2.718-2.313 3.778-1.08 8.9 2.698 11.216 3.788 2.321 8.848 1.077 11.179-2.749 2.336-3.835 1.134-8.858-2.677-11.185M608.366 143.093c-3.672-2.146-8.458-.902-10.653 2.767-2.193 3.662-1.015 8.487 2.607 10.699 3.607 2.2 8.468 1.032 10.71-2.577 2.305-3.707 1.083-8.701-2.664-10.889M640.143 162.185c-3.62-2.21-8.439-1.042-10.699 2.59-2.25 3.62-1.158 8.448 2.432 10.743 3.543 2.264 8.46 1.168 10.754-2.398 2.361-3.672 1.225-8.669-2.487-10.935M418.493 29.005c-3.613-2.217-8.436-1.06-10.703 2.569-2.259 3.614-1.174 8.444 2.411 10.748 3.536 2.271 8.459 1.183 10.759-2.377 2.368-3.668 1.24-8.666-2.467-10.94M450.008 47.942c-3.69-2.13-8.464-.869-10.643 2.812-2.175 3.674-.979 8.498 2.653 10.687 3.72 2.242 8.682.932 10.846-2.864 2.1-3.686.801-8.525-2.856-10.635M671.68 181.136c-3.683-2.136-8.462-.881-10.646 2.795-2.181 3.67-.991 8.495 2.635 10.692 3.62 2.19 8.47 1.01 10.704-2.604 2.295-3.712 1.058-8.708-2.693-10.883M481.684 66.975c-3.684-2.137-8.463-.88-10.647 2.796-2.18 3.669-.991 8.494 2.637 10.69 3.714 2.25 8.68.946 10.85-2.847 2.105-3.683.813-8.522-2.84-10.64M513.49 86.084c-3.614-2.216-8.437-1.056-10.704 2.574-2.256 3.614-1.171 8.443 2.415 10.746 3.537 2.27 8.46 1.18 10.758-2.38 2.367-3.669 1.238-8.667-2.47-10.94M545.006 105.022c-3.69-2.13-8.464-.868-10.642 2.812-2.176 3.674-.98 8.499 2.652 10.688 3.72 2.242 8.682.931 10.846-2.864 2.1-3.686.802-8.525-2.856-10.636M576.823 124.138c-3.614-2.216-8.436-1.057-10.704 2.573-2.257 3.613-1.172 8.443 2.414 10.746 3.535 2.271 8.459 1.182 10.758-2.38 2.368-3.666 1.24-8.665-2.468-10.939M354.988-9.152c-3.697-2.116-8.469-.84-10.633 2.845-2.165 3.684-.952 8.507 2.686 10.68 3.73 2.229 8.684.904 10.837-2.898 2.088-3.69.772-8.53-2.89-10.627M386.704 9.905c-3.672-2.146-8.459-.903-10.654 2.767-2.191 3.663-1.015 8.487 2.607 10.698 3.608 2.201 8.468 1.033 10.711-2.576 2.305-3.707 1.083-8.701-2.664-10.89M677.819 206.78c-3.548-2.038-8.034-.843-10.139 2.697-2.106 3.544-.995 8.051 2.509 10.176 3.453 2.094 8.089.977 10.222-2.464 2.18-3.517.974-8.362-2.592-10.41M614.48 168.722c-3.55-2.034-8.033-.836-10.135 2.708-2.103 3.544-.987 8.053 2.517 10.172 3.457 2.091 8.091.97 10.22-2.473 2.178-3.52.967-8.362-2.602-10.407M582.81 149.694c-3.554-2.032-8.033-.832-10.134 2.714-2.1 3.545-.98 8.054 2.525 10.17 3.46 2.089 8.09.965 10.219-2.48 2.174-3.522.96-8.364-2.61-10.404M646.298 187.841c-3.468-2.126-8.026-1.024-10.192 2.466-2.185 3.522-1.192 7.996 2.27 10.228 3.476 2.24 8.295 1.098 10.428-2.47 2.067-3.459.926-8.119-2.506-10.224M329.627-2.434C326.153-4.554 321.6-3.445 319.44.05c-2.181 3.523-1.179 8 2.288 10.224 3.479 2.234 8.297 1.083 10.423-2.488 2.06-3.461.91-8.123-2.523-10.219M361.288 16.59c-3.476-2.118-8.027-1.006-10.186 2.49-2.178 3.524-1.172 8.002 2.295 10.223 3.482 2.23 8.298 1.078 10.421-2.495 2.059-3.463.904-8.125-2.53-10.218M392.912 35.592c-3.5-2.093-8.03-.954-10.172 2.557-2.153 3.529-1.113 8.021 2.364 10.21 3.502 2.204 8.31 1.017 10.407-2.568 2.032-3.477.843-8.142-2.6-10.2M424.555 54.603c-3.613-2.134-8.217-.866-10.304 2.843-2.013 3.577-.764 8.1 2.789 10.097 3.544 1.99 8.121.75 10.15-2.75 2.02-3.486.814-8.15-2.635-10.19M456.172 73.601c-3.538-2.047-8.033-.863-10.145 2.672-2.113 3.538-1.015 8.047 2.481 10.182 3.447 2.104 8.087.998 10.23-2.438 2.19-3.509.995-8.357-2.566-10.416M551.08 130.633c-3.59-1.995-8.026-.761-10.104 2.81-2.07 3.561-.907 8.069 2.62 10.144 3.489 2.053 8.104.886 10.194-2.577 2.14-3.543.876-8.384-2.71-10.377M487.941 92.691c-3.483-2.112-8.027-.993-10.182 2.507-2.172 3.527-1.158 8.007 2.312 10.22 3.488 2.225 8.301 1.063 10.418-2.514 2.053-3.466.89-8.13-2.548-10.213M519.541 111.677c-3.52-2.07-8.032-.909-10.16 2.615-2.132 3.533-1.062 8.033 2.424 10.196 3.426 2.125 8.079 1.043 10.244-2.382 2.208-3.493 1.041-8.342-2.508-10.43M272.138-14.894c-3.415-1.907-7.566-.743-9.53 2.671-1.95 3.39-.824 7.562 2.574 9.546 3.346 1.952 7.678.86 9.633-2.43 2.013-3.383.791-7.851-2.677-9.787M303.914 4.196c-3.376-1.968-7.568-.873-9.575 2.5-2.006 3.372-.958 7.557 2.401 9.588 3.323 2.008 7.636 1.003 9.676-2.255 2.08-3.32.931-7.832-2.502-9.833M335.48 23.166c-3.411-1.912-7.567-.754-9.535 2.656-1.954 3.388-.835 7.56 2.56 9.548 3.343 1.958 7.675.874 9.638-2.413 2.018-3.379.802-7.85-2.663-9.791M367.316 42.29c-3.354-2.006-7.569-.957-9.603 2.39-2.042 3.36-1.044 7.553 2.29 9.615 3.4 2.101 7.888 1.015 9.85-2.384 1.915-3.32.776-7.64-2.537-9.62M399.124 61.401c-3.301-2.08-7.576-1.123-9.66 2.164-2.112 3.332-1.212 7.551 2.065 9.67 3.363 2.176 7.83 1.204 9.904-2.156 2.002-3.243.96-7.617-2.309-9.678M430.732 80.392c-3.323-2.048-7.575-1.051-9.637 2.259-2.084 3.343-1.143 7.55 2.158 9.647 3.378 2.147 7.855 1.126 9.882-2.251 1.968-3.278.885-7.628-2.403-9.655M462.258 99.339c-3.372-1.977-7.568-.89-9.58 2.478-2.013 3.37-.975 7.556 2.378 9.593 3.412 2.07 7.914.938 9.829-2.474 1.882-3.355.708-7.644-2.627-9.597M493.9 118.352c-3.379-1.962-7.568-.861-9.57 2.515-2.001 3.373-.946 7.557 2.416 9.584 3.325 2.003 7.64.992 9.672-2.27 2.074-3.324.92-7.835-2.517-9.83M525.682 137.445c-3.34-2.023-7.573-.996-9.618 2.334-2.06 3.356-1.087 7.55 2.235 9.63 3.391 2.121 7.872 1.063 9.864-2.329 1.935-3.299.818-7.636-2.481-9.635M557.238 156.409c-3.378-1.965-7.568-.868-9.573 2.506-2.003 3.373-.952 7.558 2.408 9.586 3.324 2.006 7.637.998 9.674-2.26 2.077-3.324.926-7.834-2.509-9.832M589.006 175.494c-3.344-2.02-7.573-.986-9.615 2.348-2.055 3.356-1.076 7.552 2.248 9.625 3.394 2.117 7.877 1.052 9.86-2.342 1.931-3.304.81-7.637-2.493-9.631M620.464 194.402c-3.414-1.907-7.565-.743-9.53 2.67-1.95 3.39-.823 7.563 2.575 9.547 3.345 1.952 7.677.86 9.633-2.43 2.013-3.383.79-7.851-2.678-9.787M652.318 213.535c-3.352-2.01-7.57-.964-9.606 2.38-2.046 3.36-1.052 7.553 2.28 9.618 3.397 2.105 7.885 1.024 9.852-2.374 1.919-3.315.784-7.638-2.526-9.624M683.926 232.53c-3.37-1.979-7.568-.897-9.582 2.469-2.017 3.37-.983 7.555 2.37 9.595 3.41 2.074 7.91.946 9.83-2.465 1.885-3.35.715-7.643-2.618-9.599M246.816-8.076c-3.198-1.945-7.211-.99-9.138 2.174-1.928 3.164-.943 7.195 2.228 9.131 3.178 1.94 7.218.978 9.147-2.179 1.933-3.159.944-7.191-2.237-9.126M278.511 10.97c-3.193-1.96-7.207-1.027-9.15 2.126-1.942 3.155-.978 7.197 2.182 9.142 3.174 1.956 7.208 1.016 9.156-2.132 1.951-3.15.983-7.19-2.188-9.136M310.022 29.9c-3.21-1.877-7.224-.828-9.088 2.379-1.86 3.2-.793 7.187 2.43 9.079 3.2 1.876 7.234.82 9.093-2.382 1.864-3.209.798-7.186-2.435-9.076M341.769 48.977c-3.202-1.921-7.217-.932-9.122 2.247-1.902 3.176-.888 7.192 2.302 9.113 3.185 1.916 7.226.92 9.129-2.25 1.907-3.174.888-7.193-2.31-9.11M373.679 68.155c-3.162-2.047-7.187-1.238-9.215 1.852-2.032 3.099-1.183 7.195 1.909 9.203 3.151 2.048 7.158 1.239 9.21-1.86a6.57 6.57 0 0 0-1.904-9.195M405.177 87.078c-3.193-1.961-7.208-1.03-9.15 2.124-1.944 3.154-.982 7.196 2.178 9.143 3.175 1.956 7.208 1.017 9.157-2.13 1.953-3.15.986-7.19-2.185-9.137M436.862 106.116c-3.188-1.97-7.204-1.052-9.158 2.094-1.955 3.149-1.004 7.195 2.148 9.15 3.17 1.966 7.203 1.043 9.164-2.1 1.962-3.144 1.01-7.189-2.154-9.144M468.328 125.019c-3.214-1.864-7.23-.794-9.078 2.42-1.846 3.208-.76 7.188 2.471 9.069a6.592 6.592 0 0 0 9.08-2.425c1.85-3.218.767-7.184-2.473-9.064M531.724 163.112c-3.207-1.899-7.222-.879-9.105 2.315-1.88 3.19-.838 7.19 2.37 9.096 3.19 1.895 7.229.868 9.108-2.318 1.887-3.194.844-7.188-2.373-9.093M563.398 182.144c-3.206-1.903-7.22-.89-9.108 2.302-1.885 3.187-.849 7.19 2.356 9.099 3.19 1.9 7.228.878 9.114-2.304 1.89-3.191.85-7.19-2.362-9.097M595.186 201.247c-3.19-1.968-7.206-1.045-9.155 2.103-1.952 3.151-.997 7.197 2.158 9.149 3.171 1.962 7.204 1.034 9.161-2.11 1.96-3.146 1.002-7.19-2.164-9.142M626.788 220.234c-3.2-1.934-7.213-.964-9.131 2.207-1.916 3.17-.918 7.194 2.263 9.124 3.179 1.926 7.224.948 9.14-2.213 1.918-3.162.914-7.193-2.272-9.118M658.32 239.179c-3.215-1.863-7.23-.789-9.076 2.426-1.843 3.209-.755 7.188 2.478 9.067a6.593 6.593 0 0 0 9.079-2.431c1.847-3.221.762-7.184-2.482-9.062M500.206 144.177c-3.187-1.977-7.203-1.067-9.162 2.075a6.597 6.597 0 0 0 2.129 9.155c3.169 1.972 7.198 1.057 9.167-2.082 1.97-3.14 1.025-7.188-2.134-9.148M411.368 112.805c-2.92-1.86-6.918-.944-8.71 1.995-1.78 2.921-.742 6.947 2.234 8.663 2.926 1.688 6.648.718 8.414-2.192 1.773-2.923.92-6.645-1.938-8.466M664.632 264.98c-2.945-1.827-6.94-.861-8.684 2.1-1.686 2.864-.733 6.727 2.095 8.49 2.959 1.846 6.835.88 8.63-2.15 1.742-2.935.843-6.65-2.04-8.44M632.908 245.92c-2.964-1.799-6.958-.788-8.66 2.191-1.652 2.888-.657 6.737 2.186 8.468 2.978 1.812 6.836.806 8.608-2.243a6.17 6.17 0 0 0-2.134-8.417M601.33 226.944c-2.934-1.842-6.93-.9-8.696 2.053-1.703 2.845-.767 6.723 2.047 8.502 2.952 1.863 6.832.92 8.643-2.104 1.754-2.925.875-6.65-1.994-8.451M569.616 207.888c-2.951-1.817-6.947-.837-8.677 2.13-1.675 2.873-.71 6.73 2.124 8.482 2.965 1.836 6.835.858 8.623-2.178 1.733-2.94.821-6.652-2.07-8.434M506.355 169.879c-2.924-1.856-6.921-.93-8.705 2.013-1.774 2.927-.728 6.948 2.251 8.659 2.932 1.682 6.648.705 8.41-2.212 1.768-2.923.907-6.647-1.956-8.46M474.498 150.737c-2.888-1.696-6.72-.759-8.483 2.076-1.803 2.899-.793 6.94 2.168 8.68 2.91 1.708 6.65.765 8.43-2.128 1.854-3.011.913-6.85-2.115-8.628M442.89 131.744c-2.97-1.786-6.967-.757-8.652 2.228-1.637 2.898-.627 6.742 2.222 8.459 2.986 1.798 6.836.779 8.599-2.279a6.17 6.17 0 0 0-2.17-8.408M537.975 188.876c-2.942-1.831-6.938-.87-8.687 2.09-1.69 2.859-.741 6.726 2.083 8.492 2.957 1.85 6.834.89 8.634-2.138 1.745-2.934.851-6.652-2.03-8.444M379.516 93.666c-2.886-1.705-6.716-.78-8.49 2.051-1.812 2.89-.813 6.938 2.143 8.685 2.905 1.718 6.651.785 8.437-2.102 1.861-3.008.931-6.85-2.09-8.634M347.896 74.667c-2.97-1.789-6.965-.764-8.653 2.22-1.64 2.896-.634 6.741 2.213 8.46 2.986 1.802 6.838.785 8.603-2.27a6.173 6.173 0 0 0-2.163-8.41M316.183 55.612c-2.885-1.705-6.715-.78-8.489 2.052-1.812 2.89-.813 6.937 2.143 8.684 2.905 1.718 6.651.785 8.437-2.102 1.862-3.007.931-6.849-2.09-8.634M284.664 36.672c-2.936-1.84-6.933-.892-8.694 2.061-1.7 2.85-.763 6.725 2.056 8.5 2.953 1.86 6.832.913 8.64-2.112 1.753-2.928.87-6.65-2.002-8.45M252.953 17.618c-2.951-1.817-6.946-.835-8.676 2.133-1.674 2.874-.708 6.73 2.127 8.482 2.872 1.775 6.65.91 8.476-1.938 1.913-2.984 1.057-6.842-1.927-8.677M221.306-1.398c-2.947-1.826-6.941-.858-8.684 2.104-1.685 2.865-.73 6.727 2.098 8.489 2.865 1.785 6.65.934 8.484-1.91 1.92-2.979 1.077-6.839-1.898-8.683M195.706 5.297c-2.667-1.652-6.223-.78-7.884 1.931-1.675 2.734-.857 6.239 1.844 7.898 2.66 1.634 6.287.767 7.925-1.894 1.632-2.653.767-6.293-1.885-7.935M227.372 24.324c-2.667-1.652-6.223-.78-7.883 1.931-1.676 2.734-.858 6.238 1.843 7.897 2.661 1.635 6.287.768 7.925-1.893 1.632-2.653.767-6.293-1.885-7.935M259.061 43.365c-2.655-1.664-6.222-.809-7.892 1.894-1.685 2.724-.882 6.236 1.806 7.907 2.647 1.647 6.28.796 7.933-1.858 1.647-2.643.8-6.283-1.847-7.943M290.57 62.293c-2.736-1.57-6.227-.611-7.831 2.152s-.68 6.271 2.063 7.84c2.733 1.56 6.306.602 7.867-2.11 1.557-2.706.588-6.34-2.1-7.882M322.244 81.325c-2.731-1.575-6.228-.62-7.835 2.137-1.608 2.762-.69 6.27 2.051 7.845 2.728 1.566 6.304.613 7.87-2.096 1.562-2.704.6-6.337-2.086-7.886M353.987 100.4c-2.688-1.62-6.228-.716-7.866 2.01-1.648 2.74-.789 6.254 1.926 7.879 2.685 1.606 6.295.706 7.904-1.973 1.604-2.669.7-6.309-1.964-7.915M385.75 119.489c-2.644-1.682-6.217-.844-7.9 1.853-1.699 2.721-.918 6.228 1.763 7.918 2.64 1.662 6.272.83 7.943-1.82 1.66-2.633.833-6.273-1.806-7.951M448.941 157.454c-2.712-1.594-6.228-.663-7.848 2.081-1.623 2.75-.73 6.266 1.997 7.86 2.71 1.585 6.3.655 7.885-2.042 1.58-2.69.645-6.326-2.034-7.9M480.719 176.55c-2.657-1.661-6.222-.803-7.89 1.9-1.684 2.729-.879 6.238 1.813 7.908 2.65 1.643 6.283.788 7.932-1.867 1.643-2.645.792-6.285-1.855-7.94M512.453 195.62c-2.622-1.703-6.216-.89-7.914 1.79-1.721 2.718-.972 6.216 1.7 7.932 2.624 1.685 6.262.882 7.957-1.756 1.682-2.617.884-6.26-1.743-7.965M543.934 214.531c-2.715-1.591-6.228-.655-7.846 2.09-1.62 2.75-.723 6.267 2.006 7.858 2.713 1.582 6.299.648 7.882-2.05 1.578-2.694.638-6.328-2.042-7.898M575.612 233.565c-2.71-1.598-6.23-.669-7.852 2.071-1.626 2.748-.735 6.265 1.989 7.863 2.706 1.588 6.298.661 7.887-2.034 1.584-2.686.652-6.322-2.024-7.9M607.311 252.612c-2.692-1.618-6.23-.71-7.865 2.018-1.644 2.743-.782 6.256 1.935 7.877 2.686 1.603 6.296.699 7.902-1.98 1.6-2.672.694-6.312-1.972-7.915M639.04 271.68c-2.662-1.658-6.222-.793-7.887 1.914-1.679 2.73-.867 6.24 1.829 7.903 2.655 1.639 6.284.778 7.927-1.88 1.639-2.649.781-6.289-1.87-7.938M670.708 290.707c-2.66-1.658-6.223-.794-7.888 1.913-1.68 2.73-.87 6.238 1.826 7.903 2.654 1.64 6.284.78 7.928-1.877 1.639-2.649.784-6.289-1.866-7.939M417.392 138.5c-2.655-1.665-6.222-.81-7.893 1.893-1.684 2.725-.882 6.236 1.806 7.908 2.648 1.646 6.28.795 7.933-1.858 1.646-2.645.8-6.284-1.846-7.944M296.824 88.328c-2.455-1.59-5.678-.92-7.23 1.507-1.547 2.42-.794 5.676 1.666 7.198 2.503 1.548 5.632.79 7.15-1.735 1.467-2.44.786-5.433-1.586-6.97M138.42-6.855c-2.474-1.553-5.69-.825-7.201 1.631-1.506 2.45-.7 5.68 1.786 7.17 2.424 1.45 5.44.75 6.974-1.616 1.612-2.489.933-5.621-1.559-7.185M486.553 202.329c-2.513-1.455-5.727-.582-7.121 1.934-1.397 2.519-.46 5.69 2.094 7.09 2.464 1.35 5.444.522 6.895-1.918 1.511-2.542.702-5.62-1.868-7.106M328.426 107.311c-2.472-1.557-5.69-.835-7.205 1.617-1.512 2.446-.713 5.68 1.772 7.173 2.422 1.455 5.44.762 6.977-1.6 1.617-2.486.944-5.622-1.544-7.19M233.474 50.262c-2.46-1.58-5.68-.896-7.222 1.537-1.538 2.428-.773 5.677 1.694 7.192 2.412 1.479 5.44.82 6.996-1.523 1.642-2.47 1-5.617-1.468-7.206M170.116 12.192c-2.465-1.569-5.687-.863-7.213 1.58-1.523 2.44-.74 5.678 1.739 7.181 2.512 1.525 5.635.733 7.131-1.808 1.444-2.45.733-5.434-1.657-6.953M201.793 31.225c-2.463-1.574-5.684-.876-7.217 1.562-1.529 2.435-.753 5.678 1.72 7.186 2.415 1.472 5.44.803 6.989-1.547 1.635-2.477.983-5.618-1.492-7.2M265.034 69.223c-2.484-1.526-5.7-.76-7.18 1.71-1.478 2.467-.638 5.684 1.865 7.15 2.436 1.427 5.44.695 6.955-1.695 1.587-2.505.874-5.619-1.64-7.165M360.039 126.307c-2.484-1.53-5.698-.77-7.183 1.7-1.481 2.464-.647 5.684 1.854 7.153 2.529 1.484 5.641.64 7.104-1.928 1.404-2.466.644-5.434-1.775-6.925M391.727 145.348c-2.48-1.543-5.693-.8-7.192 1.664-1.494 2.456-.675 5.682 1.82 7.161 2.523 1.497 5.638.668 7.112-1.892 1.416-2.46.67-5.434-1.74-6.933M423.352 164.351c-2.486-1.521-5.703-.745-7.176 1.73-1.47 2.471-.622 5.684 1.886 7.144 2.532 1.474 5.643.616 7.095-1.957 1.395-2.469.621-5.434-1.805-6.917M455.04 183.39c-2.483-1.532-5.698-.773-7.184 1.695-1.484 2.464-.65 5.684 1.85 7.154 2.528 1.487 5.64.644 7.104-1.923 1.407-2.465.648-5.435-1.77-6.926M518.37 221.442c-2.484-1.531-5.699-.77-7.184 1.7-1.48 2.464-.647 5.683 1.855 7.152 2.528 1.485 5.64.64 7.103-1.927 1.405-2.466.645-5.434-1.775-6.925M550.108 240.514c-2.466-1.569-5.686-.861-7.212 1.581-1.524 2.442-.739 5.679 1.74 7.182 2.416 1.465 5.439.787 6.983-1.567 1.629-2.48.97-5.62-1.511-7.196M581.624 259.45c-2.499-1.49-5.717-.67-7.152 1.824-1.437 2.496-.551 5.688 1.98 7.12 2.54 1.44 5.648.537 7.07-2.05 1.363-2.481.549-5.433-1.898-6.894M613.42 278.553c-2.471-1.557-5.69-.835-7.205 1.617-1.511 2.446-.712 5.68 1.773 7.173 2.421 1.455 5.44.762 6.975-1.6 1.619-2.486.946-5.622-1.542-7.19M645.042 297.554c-2.483-1.534-5.698-.78-7.187 1.687-1.486 2.462-.656 5.683 1.843 7.156 2.432 1.434 5.44.71 6.96-1.671 1.595-2.502.892-5.62-1.616-7.172M676.77 316.62c-2.468-1.567-5.688-.858-7.212 1.586-1.522 2.44-.735 5.679 1.744 7.18 2.513 1.522 5.636.728 7.13-1.815 1.441-2.45.728-5.435-1.663-6.952M650.952 323.28c-2.14-1.227-4.864-.516-6.176 1.614-1.325 2.153-.746 4.845 1.34 6.225 2.123 1.404 5.12.75 6.457-1.41 1.324-2.142.558-5.178-1.62-6.428M366 152.065c-2.126-1.255-4.859-.572-6.191 1.546-1.406 2.239-.737 5.072 1.51 6.39 2.11 1.238 4.925.563 6.232-1.495 1.35-2.126.62-5.159-1.551-6.44M112.786-.075c-2.07-1.322-4.849-.716-6.228 1.356-1.466 2.204-.886 5.056 1.31 6.439 2.153 1.357 5.146.634 6.43-1.552 1.223-2.08.53-4.938-1.512-6.243M144.3 18.855c-2.236-1.287-5.054-.462-6.317 1.85-1.201 2.198-.45 4.89 1.712 6.128 2.122 1.218 4.937.515 6.218-1.551 1.326-2.14.565-5.175-1.613-6.427M175.92 37.852c-2.256-1.257-5.055-.4-6.296 1.928-1.18 2.21-.395 4.895 1.785 6.106 2.239 1.246 5.178.378 6.335-1.872 1.108-2.156.267-4.996-1.824-6.162M207.785 57.006c-2.071-1.322-4.85-.716-6.229 1.356-1.466 2.203-.885 5.055 1.31 6.438 2.153 1.357 5.146.635 6.43-1.551 1.223-2.08.532-4.938-1.511-6.243M239.334 75.957c-2.126-1.254-4.859-.571-6.19 1.548-1.404 2.235-.734 5.072 1.511 6.389 2.11 1.238 4.926.562 6.233-1.496 1.349-2.126.617-5.159-1.554-6.44M271.118 95.06c-2.162-1.38-5.055-.66-6.385 1.591-1.279 2.16-.636 4.877 1.465 6.203 2.152 1.357 5.144.635 6.43-1.55 1.223-2.082.531-4.938-1.51-6.244M302.606 113.972c-2.246-1.27-5.056-.426-6.306 1.894-1.19 2.205-.42 4.892 1.751 6.116 2.236 1.26 5.173.41 6.345-1.838 1.12-2.15.295-4.992-1.79-6.172M334.337 133.042c-2.123-1.258-4.858-.578-6.19 1.54-1.408 2.233-.74 5.07 1.5 6.389 2.109 1.24 4.926.568 6.236-1.487 1.351-2.124.623-5.158-1.546-6.442M397.787 171.172c-2.066-1.327-4.848-.726-6.23 1.344-1.47 2.203-.895 5.052 1.3 6.44 2.15 1.362 5.143.645 6.431-1.539 1.228-2.077.54-4.935-1.5-6.245M429.369 190.144c-2.104-1.276-4.858-.617-6.202 1.483-1.425 2.226-.785 5.067 1.443 6.406 2.092 1.257 4.918.608 6.248-1.435 1.372-2.11.673-5.144-1.489-6.454M460.918 209.095c-2.155-1.202-4.87-.466-6.163 1.675-1.304 2.158-.694 4.86 1.4 6.215 2.136 1.381 5.133.694 6.446-1.477 1.301-2.154.503-5.192-1.683-6.413M492.763 228.238c-2.077-1.313-4.85-.698-6.223 1.381-1.457 2.209-.864 5.058 1.338 6.432 2.066 1.29 4.904.684 6.271-1.338 1.407-2.085.759-5.12-1.386-6.475M524.347 247.211c-2.21-1.32-5.054-.53-6.341 1.76-1.23 2.19-.519 4.884 1.625 6.155 2.199 1.304 5.159.511 6.383-1.712 1.167-2.12.402-4.966-1.667-6.203M556.122 266.31c-2.155-1.388-5.053-.675-6.389 1.571-1.284 2.159-.649 4.876 1.45 6.207 2.148 1.363 5.141.65 6.433-1.532 1.23-2.076.546-4.934-1.494-6.247M587.665 285.257c-2.123-1.258-4.858-.578-6.19 1.54-1.407 2.233-.74 5.07 1.502 6.39 2.107 1.24 4.924.568 6.233-1.489 1.353-2.122.625-5.157-1.545-6.441M619.323 304.277c-2.222-1.307-5.051-.504-6.332 1.797-1.217 2.192-.49 4.886 1.66 6.145 2.21 1.293 5.163.483 6.373-1.746 1.155-2.13.374-4.973-1.701-6.196M213.738 82.918c-1.81-1.143-4.318-.587-5.464 1.21-1.135 1.784-.562 4.322 1.237 5.467 1.826 1.16 4.253.6 5.42-1.252 1.18-1.87.653-4.259-1.193-5.425M435.373 216.09c-1.82-1.128-4.325-.553-5.452 1.255-1.12 1.794-.526 4.328 1.278 5.454 1.838 1.147 4.256.568 5.412-1.295 1.164-1.876.618-4.262-1.238-5.414M466.894 235.032c-1.868-1.05-4.362-.365-5.394 1.484-1.037 1.857-.338 4.359 1.509 5.4 1.89 1.064 4.268.384 5.354-1.53 1.088-1.913.438-4.282-1.47-5.354M182.064 63.886c-1.813-1.139-4.32-.578-5.46 1.223-1.132 1.787-.553 4.323 1.248 5.463 1.83 1.157 4.254.592 5.418-1.264 1.174-1.87.644-4.259-1.206-5.422M530.296 273.127c-1.842-1.088-4.344-.455-5.422 1.373-1.077 1.826-.428 4.343 1.398 5.425 1.861 1.103 4.264.47 5.381-1.415 1.126-1.898.529-4.27-1.357-5.383M562.06 292.21c-1.812-1.14-4.319-.581-5.462 1.22-1.134 1.784-.556 4.321 1.245 5.462 1.829 1.16 4.253.597 5.418-1.258 1.176-1.872.647-4.258-1.202-5.423M593.621 311.177c-1.844-1.085-4.346-.446-5.419 1.383-1.073 1.83-.42 4.347 1.409 5.425 1.863 1.097 4.265.46 5.379-1.428 1.122-1.9.518-4.27-1.369-5.38M625.357 330.245c-1.821-1.122-4.326-.538-5.448 1.272-1.112 1.796-.509 4.332 1.298 5.45 1.842 1.14 4.258.554 5.407-1.313 1.158-1.88.604-4.264-1.257-5.409M657.01 349.264c-1.827-1.114-4.332-.52-5.443 1.294-1.103 1.801-.49 4.336 1.32 5.446 1.847 1.131 4.259.535 5.401-1.337 1.15-1.885.588-4.265-1.279-5.403M150.41 44.867c-1.809-1.145-4.315-.594-5.464 1.203-1.14 1.781-.57 4.32 1.23 5.467 1.823 1.165 4.25.608 5.421-1.244 1.181-1.869.66-4.256-1.186-5.426M118.723 25.828c-1.817-1.135-4.32-.568-5.456 1.237-1.128 1.79-.54 4.325 1.262 5.459 1.832 1.152 4.254.58 5.414-1.278 1.17-1.873.633-4.26-1.22-5.418M340.406 159.028c-1.81-1.145-4.315-.594-5.464 1.205-1.14 1.78-.57 4.319 1.23 5.466 1.823 1.165 4.251.607 5.421-1.244 1.182-1.87.66-4.258-1.187-5.427M87.02 6.78c-1.826-1.114-4.33-.52-5.442 1.294-1.103 1.801-.49 4.336 1.32 5.446 1.847 1.131 4.26.533 5.401-1.337 1.15-1.885.587-4.265-1.279-5.403M308.709 139.982c-1.82-1.128-4.325-.552-5.452 1.255-1.121 1.794-.526 4.328 1.278 5.454 1.838 1.147 4.256.568 5.411-1.295 1.164-1.877.619-4.261-1.237-5.414M498.675 254.127c-1.829-1.113-4.332-.513-5.44 1.301-1.102 1.804-.485 4.336 1.327 5.443 1.848 1.13 4.258.53 5.398-1.343 1.149-1.886.583-4.266-1.285-5.401M371.967 177.993c-1.84-1.088-4.344-.456-5.422 1.371-1.078 1.825-.43 4.344 1.396 5.426 1.858 1.103 4.264.472 5.381-1.413 1.127-1.898.53-4.27-1.355-5.384M403.913 197.2c-1.744-1.24-4.253-.825-5.52.912-1.233 1.692-.796 4.285.932 5.529 1.74 1.254 4.244.818 5.487-.955 1.271-1.815.877-4.225-.899-5.486M245.441 101.968c-1.795-1.162-4.307-.634-5.479 1.15-1.156 1.764-.609 4.313 1.178 5.48 1.812 1.182 4.25.649 5.435-1.19 1.198-1.861.7-4.256-1.134-5.44M276.908 120.878c-1.862-1.057-4.358-.379-5.397 1.465-1.045 1.854-.353 4.358 1.49 5.405 1.886 1.07 4.267.398 5.36-1.512 1.093-1.912.452-4.28-1.453-5.358M346.288 185.161c-1.376-.91-3.382-.472-4.259.93-.855 1.367-.358 3.427 1.025 4.248 1.418.841 3.36.304 4.185-1.16.773-1.37.35-3.155-.951-4.018M282.851 147.04c-1.406-.843-3.417-.316-4.219 1.104-.794 1.406-.21 3.452 1.2 4.2 1.47.781 3.365.171 4.133-1.328.716-1.4.218-3.18-1.114-3.977M251.394 128.15c-1.33-.967-3.339-.61-4.288.761-.918 1.328-.513 3.392.842 4.285 1.363.897 3.356.433 4.233-.987.823-1.334.473-3.143-.787-4.059M219.55 109.005c-1.39-.857-3.417-.354-4.236 1.052-.808 1.388-.244 3.45 1.155 4.217 1.357.744 3.152.28 4.006-1.036.916-1.41.49-3.36-.926-4.233M187.888 89.98c-1.388-.86-3.416-.36-4.237 1.045-.811 1.387-.25 3.448 1.147 4.219 1.355.747 3.151.287 4.008-1.027.919-1.41.496-3.359-.918-4.236M156.143 70.902c-1.437-.821-3.415-.264-4.196 1.183-.78 1.442-.17 3.449 1.267 4.177 1.484.75 3.37.108 4.111-1.401.69-1.405.157-3.192-1.182-3.959M124.556 51.929c-1.396-.868-3.41-.373-4.237 1.04-.811 1.387-.252 3.45 1.146 4.22 1.354.749 3.15.29 4.008-1.025.92-1.41.498-3.357-.917-4.235M92.89 32.902c-1.396-.868-3.41-.372-4.238 1.041-.81 1.386-.251 3.449 1.147 4.22 1.354.748 3.15.289 4.007-1.027.92-1.409.5-3.356-.916-4.234M61.304 13.927c-1.372-.918-3.378-.488-4.262.912-.862 1.365-.375 3.423 1.007 4.252 1.316.79 3.146.38 4.037-.903.967-1.39.61-3.33-.782-4.261M29.695-5.063c-1.343-.946-3.353-.561-4.277.82-.9 1.344-.464 3.404.903 4.274 1.283.816 3.14.445 4.06-.813.996-1.364.684-3.314-.686-4.28M377.85 204.12c-1.406-.842-3.418-.316-4.22 1.105-.793 1.405-.21 3.452 1.2 4.2 1.47.78 3.365.171 4.133-1.329.718-1.398.218-3.179-1.113-3.976M409.679 223.255c-1.348-.944-3.357-.552-4.275.833-.893 1.35-.45 3.407.92 4.27 1.288.813 3.14.435 4.056-.826.992-1.368.672-3.317-.701-4.277M441.465 242.36c-1.276-.994-3.323-.69-4.309.641-.961 1.3-.618 3.357.717 4.302 1.242.877 3.12.59 4.091-.627 1.045-1.311.816-3.292-.5-4.316M472.794 261.166c-1.428-.812-3.421-.242-4.19 1.197-.777 1.45-.163 3.45 1.28 4.172 1.486.746 3.371.096 4.108-1.415.684-1.406.143-3.193-1.198-3.954M504.6 280.285c-1.38-.898-3.391-.445-4.254.958-.842 1.371-.328 3.434 1.058 4.24 1.331.776 3.146.348 4.027-.947.95-1.4.572-3.339-.831-4.251M536.248 299.3c-1.383-.885-3.4-.417-4.25.987-.832 1.378-.302 3.438 1.09 4.234 1.44.821 3.359.262 4.168-1.218.754-1.38.304-3.164-1.008-4.003M568.01 318.389c-1.348-.944-3.358-.551-4.276.834-.893 1.349-.45 3.406.92 4.27 1.29.813 3.14.435 4.056-.826.992-1.368.672-3.317-.7-4.278M599.59 337.36c-1.383-.892-3.395-.433-4.251.971-.838 1.374-.317 3.436 1.071 4.238 1.433.827 3.36.272 4.172-1.202.76-1.379.319-3.16-.992-4.008M631.232 356.37c-1.386-.874-3.408-.393-4.245 1.01-.823 1.382-.28 3.445 1.115 4.229 1.447.814 3.359.245 4.16-1.241.746-1.381.286-3.167-1.03-3.998M662.912 375.407c-1.383-.885-3.4-.416-4.25.987-.832 1.379-.302 3.439 1.091 4.234 1.439.822 3.358.262 4.167-1.217.754-1.38.304-3.164-1.008-4.004M314.65 166.155c-1.361-.93-3.367-.516-4.266.881-.87 1.35-.397 3.42.972 4.259 1.401.857 3.36.34 4.2-1.11.79-1.361.388-3.15-.905-4.03M383.532 230.686c-.688-.29-1.61-.028-3.022-.002.512 1.312.62 2.27 1.155 2.796.78.771 1.763.457 2.36-.442.595-.896.523-1.924-.493-2.352M415.104 249.66c-.704-.247-1.604.07-3.01.182.596 1.285.763 2.234 1.327 2.722.83.72 1.786.337 2.328-.594.545-.934.396-1.948-.645-2.31M446.518 268.39c-.518.185-1.5.255-2.007.783-.725.753-.473 1.752.426 2.385.917.643 1.799.446 2.408-.447.606-.887.47-1.748-.827-2.72M478.367 287.674c-.715-.214-1.6.147-2.997.325.652 1.252.862 2.197 1.452 2.661.864.683 1.803.238 2.3-.707.506-.958.295-1.966-.755-2.279M510.116 306.747c-.703-.251-1.607.058-3.014.159.587 1.29.746 2.237 1.306 2.732.825.729 1.782.351 2.332-.574.551-.93.413-1.946-.624-2.317M541.758 325.7c-.974-.532-1.97-.316-2.321.671-.246.693.127 1.605.194 2.163 1.438.7 2.273.46 2.8-.484.528-.947.315-1.81-.673-2.35M605.091 363.815c-.705-.242-1.604.082-3.009.203.605 1.282.779 2.23 1.347 2.714.833.714 1.786.323 2.323-.611.541-.94.38-1.95-.66-2.306M636.776 382.852c-.703-.25-1.606.062-3.013.167.59 1.288.751 2.235 1.312 2.728.827.728 1.784.347 2.331-.58.55-.93.408-1.946-.63-2.315M668.348 401.826c-.716-.206-1.599.163-2.99.355.663 1.25.88 2.194 1.474 2.65.869.669 1.807.217 2.296-.732.496-.963.273-1.969-.78-2.273M3.376 2.27c-.715-.213-1.6.147-2.997.326.654 1.256.863 2.198 1.452 2.66.864.684 1.803.24 2.3-.707.506-.957.296-1.965-.755-2.278M35.175 21.372c-.694-.276-1.608.004-3.019.058.539 1.301.666 2.258 1.211 2.773.796.753 1.77.419 2.351-.492.578-.909.482-1.931-.543-2.34M66.694 40.257c-.997-.489-1.985-.217-2.289.78-.214.705.206 1.603.443 2.995 1.216-.665 2.16-.89 2.596-1.488.624-.855.254-1.795-.75-2.287M98.453 59.395c-.703-.25-1.606.062-3.013.166.59 1.29.75 2.236 1.312 2.73.827.727 1.784.346 2.331-.581.55-.931.408-1.946-.63-2.315M129.871 78.125c-.52.181-1.506.246-2.016.77-.729.75-.482 1.75.413 2.387.912.65 1.796.458 2.411-.431.612-.883.476-1.746-.808-2.726M161.707 97.405c-.716-.214-1.6.146-2.997.326.654 1.256.863 2.198 1.45 2.66.866.682 1.804.239 2.302-.707.505-.958.295-1.965-.755-2.279M193.433 116.466c-.706-.242-1.605.081-3.01.203.604 1.277.777 2.226 1.347 2.714.833.713 1.786.323 2.323-.612.541-.94.38-1.95-.66-2.305M256.419 154.204c-.5.208-1.474.33-1.95.884-.684.793-.382 1.773.55 2.358.951.598 1.814.346 2.379-.575.566-.921.375-1.768-.98-2.667M288.44 173.552c-.704-.247-1.605.07-3.01.183.596 1.285.762 2.233 1.327 2.721.829.72 1.785.337 2.328-.594.545-.934.395-1.948-.645-2.31M320.045 192.543c-.714-.216-1.602.139-3 .31.649 1.26.854 2.203 1.44 2.669.86.687 1.8.248 2.302-.695.51-.957.307-1.964-.742-2.284M351.761 211.538c-.973-.531-1.969-.316-2.32.672-.247.692.127 1.604.193 2.162 1.439.7 2.273.461 2.8-.483.529-.948.315-1.811-.673-2.35M225.03 135.454c-.717-.21-1.602.156-2.995.346.662 1.25.878 2.193 1.468 2.651.87.675 1.805.225 2.297-.723.502-.964.279-1.967-.77-2.274"/>
        <g transform="rotate(-149 432.27 121.876)">
            <mask id="b" fill="#fff">
                <use xlink:href="#a"/>
            </mask>
            <path fill="#797979" d="M196.926 3.597c.32-.436 1.093-1.042 1.218-1.76.18-1.033-.584-1.717-1.684-1.741-1.123-.025-1.733.636-1.745 1.716-.012 1.08.587 1.708 2.21 1.785" mask="url(#b)"/>
        </g>
    </g>
</svg>
