<?xml version="1.0" encoding="UTF-8"?>
<svg width="139px" height="83px" viewBox="0 0 139 83" version="1.1" xmlns="http://www.w3.org/2000/svg" xmlns:xlink="http://www.w3.org/1999/xlink">
    <!-- Generator: sketchtool 49 (51002) - http://www.bohemiancoding.com/sketch -->
    <title>26ECB46A-D140-4178-A70D-190A13A5D51E</title>
    <desc>Created with sketchtool.</desc>
    <defs>
        <filter x="-1.5%" y="-3.2%" width="103.0%" height="108.1%" filterUnits="objectBoundingBox" id="filter-1">
            <feOffset dx="0" dy="2" in="SourceAlpha" result="shadowOffsetOuter1"></feOffset>
            <feGaussianBlur stdDeviation="3" in="shadowOffsetOuter1" result="shadowBlurOuter1"></feGaussianBlur>
            <feColorMatrix values="0 0 0 0 0   0 0 0 0 0   0 0 0 0 0  0 0 0 0.5 0" type="matrix" in="shadowBlurOuter1" result="shadowMatrixOuter1"></feColorMatrix>
            <feMerge>
                <feMergeNode in="shadowMatrixOuter1"></feMergeNode>
                <feMergeNode in="SourceGraphic"></feMergeNode>
            </feMerge>
        </filter>
    </defs>
    <g id="mockup" stroke="none" stroke-width="1" fill="none" fill-rule="evenodd">
        <g id="walkthrough-intro" transform="translate(-847.000000, -293.000000)" fill-rule="nonzero">
            <g id="Group-15" filter="url(#filter-1)" transform="translate(354.000000, 249.000000)">
                <g id="logo_cm" transform="translate(499.000000, 48.000000)">
                    <polygon id="Shape" fill="#FC6723" points="87.1316567 40.8644878 87.1316567 70.8524878 39.8794183 70.8524878 39.8794183 40.2437073 39.8978044 40.2621463 39.8978044 40.2437073 63.8303583 64.214439 87.1132706 40.8644878 87.1132706 40.8829268"></polygon>
                    <path d="M126.680125,18.368878 L126.680125,53.5812683 C122.111168,53.5763685 117.727939,55.3944361 114.497197,58.6344808 C111.266455,61.8745255 109.453607,66.2703753 109.458493,70.8524878 L98.1755651,70.8524878 C99.368199,67.2085572 99.9723473,63.3968582 99.965144,59.5616585 C100.135865,46.3269752 93.1933265,34.0236962 81.7922654,27.3564364 C70.3912044,20.6891765 56.2950498,20.6891765 44.8939887,27.3564364 C33.4929277,34.0236962 26.5503892,46.3269752 26.7211102,59.5616585 C26.7139068,63.3968582 27.3180552,67.2085572 28.5106891,70.8524878 L17.2277616,70.8524878 C17.2243777,61.3128625 9.51223713,53.5812677 0,53.5812683 L0,18.368878 C3.1465297,18.3831172 6.2368574,17.5328495 8.9356373,15.9103415 C9.16852771,15.7689756 9.40141812,15.6153171 9.63430853,15.4616585 C10.0919178,15.1461463 10.5331838,14.8142439 10.9581066,14.4659512 C14.9458023,11.1818178 17.2482657,6.27245611 17.2277616,1.09765854 C17.233653,0.924742775 17.2213273,0.751686366 17.1909894,0.581365854 L109.489136,0.581365854 C109.463679,0.752211986 109.453424,0.92499022 109.458493,1.09765854 C109.437161,6.26509829 111.73227,11.1686594 115.709761,14.4536585 C116.13877,14.804 116.580036,15.1359024 117.039688,15.4493659 C117.26645,15.6030244 117.49934,15.7566829 117.738359,15.8980488 C120.437429,17.5265307 123.530272,18.381159 126.680125,18.368878 Z" id="Shape" fill="#FC6723"></path>
                    <polygon id="Shape" fill="#FC6723" points="39.8794183 40.2437073 39.8978384 40.2621463 39.8978384 70.8586341 39.8794183 70.8586341"></polygon>
                    <polygon id="Shape" fill="#FC6723" points="63.8303583 64.214439 87.1132706 40.8644878 87.1132706 40.8829268 63.8426157 64.2205854"></polygon>
                    <path d="M126.680125,18.3750244 L126.680125,53.5812683 C122.111168,53.5763685 117.727939,55.3944361 114.497197,58.6344808 C111.266455,61.8745255 109.453607,66.2703753 109.458493,70.8524878 L98.1755651,70.8524878 C99.368199,67.2085572 99.9723473,63.3968582 99.965144,59.5616585 C100.135865,46.3269752 93.1933265,34.0236962 81.7922654,27.3564364 C70.3912044,20.6891765 56.2950498,20.6891765 44.8939887,27.3564364 C33.4929277,34.0236962 26.5503892,46.3269752 26.7211102,59.5616585 C26.7139068,63.3968582 27.3180552,67.2085572 28.5106891,70.8524878 L17.2277616,70.8524878 C17.2243777,61.3128625 9.51223713,53.5812677 0,53.5812683 L0,18.3750244 C2.56797551,18.3796774 5.10425214,17.8062693 7.42184963,16.6970732 C7.76505655,16.531122 8.10826347,16.3590244 8.439213,16.1684878 L8.9356373,15.8796098 C9.16852771,15.7382439 9.40141812,15.5845854 9.63430853,15.4309268 C10.0931635,15.1298397 10.5351015,14.8035876 10.9581066,14.4536585 C14.9424677,11.1722491 17.2445768,6.26815631 17.2277616,1.09765854 C17.233653,0.924742775 17.2213273,0.751686366 17.1909894,0.581365854 L109.489136,0.581365854 C109.463679,0.752211986 109.453424,0.92499022 109.458493,1.09765854 C109.437161,6.26509829 111.73227,11.1686594 115.709761,14.4536585 C116.141925,14.8027369 116.591976,15.1289374 117.058074,15.4309268 C117.284836,15.5845854 117.517726,15.7382439 117.756746,15.8796098 L118.25317,16.1684878 C118.584119,16.3590244 118.921198,16.531122 119.270533,16.6970732 C121.584398,17.8044762 124.116286,18.3778389 126.680125,18.3750244 Z" id="Shape" fill="#FC6723"></path>
                    <polygon id="Shape" fill="#FFFFFF" points="39.8978044 40.2437073 63.8303583 64.214439 63.8242296 64.2205854 39.8978044 40.2621463"></polygon>
                    <polygon id="Shape" fill="#FFFFFF" points="87.1316907 40.8644878 87.1316907 70.8524878 87.1132706 70.8524878 87.1132706 40.8829268"></polygon>
                </g>
            </g>
        </g>
    </g>
</svg>